<?xml version="1.0" encoding="UTF-8" standalone="no"?>
<svg
   xmlns:dc="http://purl.org/dc/elements/1.1/"
   xmlns:cc="http://creativecommons.org/ns#"
   xmlns:rdf="http://www.w3.org/1999/02/22-rdf-syntax-ns#"
   xmlns:svg="http://www.w3.org/2000/svg"
   xmlns="http://www.w3.org/2000/svg"
   xmlns:sodipodi="http://sodipodi.sourceforge.net/DTD/sodipodi-0.dtd"
   xmlns:inkscape="http://www.inkscape.org/namespaces/inkscape"
   width="297mm"
   height="210mm"
   viewBox="-14 -7 29.7 21"
   version="1.1"
   id="svg2"
   inkscape:version="0.91 r13725"
   sodipodi:docname="blueprint.svg">
  <metadata
     id="metadata12">
    <rdf:RDF>
      <cc:Work
         rdf:about="">
        <dc:format>image/svg+xml</dc:format>
        <dc:type
           rdf:resource="http://purl.org/dc/dcmitype/StillImage" />
        <dc:title>OpenSCAD Model</dc:title>
      </cc:Work>
    </rdf:RDF>
  </metadata>
  <defs
     id="defs10" />
  <sodipodi:namedview
     pagecolor="#ffffff"
     bordercolor="#666666"
     borderopacity="1"
     objecttolerance="10"
     gridtolerance="10"
     guidetolerance="10"
     inkscape:pageopacity="0"
     inkscape:pageshadow="2"
     inkscape:window-width="1920"
     inkscape:window-height="1016"
     id="namedview8"
     showgrid="false"
     units="mm"
     inkscape:zoom="1.0792165"
     inkscape:cx="536.83331"
     inkscape:cy="376.93981"
     inkscape:window-x="0"
     inkscape:window-y="27"
     inkscape:window-maximized="1"
     inkscape:current-layer="svg2" />
  <title
     id="title4">OpenSCAD Model</title>
  <path
     d="m 3.9729718,9.5358935 0.45813,0.1667596 0.00342,-0.0094 -0.44325,-0.1613196 2.24337,0 -0.44323,0.1612996 0.00341,0.0094 0.46814,-0.1703996 0,0.9897195 0.01,0 0,-1.9000095 4.5896892,0 6.2e-4,0.0017 0.0047,-0.0017 0.0047,0.0017 6e-4,-0.0017 0.9897,0 0,-0.01 -0.9861,0 0.1668,-0.45813 -0.0094,-0.0034 -0.1613,0.44325 0,-12.1433904 0.1613,0.44324 0.0094,-0.00342 -0.1704,-0.46812 0.9897,0 0,-0.01 -10.99999921,0 0,0.01 -0.95423899,0.0751 -0.930751,0.22345 -0.88434,0.36631 -0.81615,0.50013 -0.72786,0.62166 -0.62166,0.72786 -0.50013,0.81614999 -0.36631,0.88434 -0.22345,0.93075101 -0.0751,0.954239 0.0751,0.954239 0.22345,0.930751 0.36631,0.88434 0.50013,0.81615 0.62166,0.7278604 0.72786,0.62166 0.81615,0.50013 0.88434,0.36631 0.930751,0.22345 0.95423899,0.0751 3.10001001,0 0,0.89969 -0.00171,6.3e-4 0.00171,0.0047 -0.00171,0.0047 0.00171,6.3e-4 0,0.9896995 0.00999,0 z m 2.29999,-0.92393 0,-3.2796404 0.02514,-0.04103 0.19442,-0.46934 1.37013,0 6.3e-4,0.00171 0.00468,-0.00171 0.00468,0.00171 6.3e-4,-0.00171 0.9897,0 0,-0.01 -0.98607,0 0.16676,-0.45813 -0.00939,-0.00341 -0.16132,0.44325 0,-4.54338001 0.1613,0.44323001 0.0094,-0.00341 -0.17038,-0.46813001 0.9897,0 0,-0.01001 -2.3746,0 -0.19027,-0.45933 -0.50013,-0.81614999 -0.62166,-0.72786 -0.72786,-0.62166 -0.81615,-0.50013 -0.88434,-0.36631 -0.930751,-0.22345 -0.95423901,-0.0751 9.99967921,0 -0.1704,0.46812 0.0094,0.00342 0.16132,-0.44324 0,12.1433904 -0.16132,-0.44325 -0.0094,0.0034 0.16677,0.45813 z m 2.43194,-5.9830054 0.068,0 0,-0.048996 -0.068,0 0,-0.3199917 -0.06401,0 -0.21699,0.3219906 0,0.046997 0.222,0 0,0.143005 0.059,0 z m -0.22399,-0.048996 0.02299,-0.032013 0.133,-0.2009737 0.009,-0.018005 0,0.2509917 z m 0.57405,0.1809993 0.04875,-0.033004 0.03074,-0.05275 0.01026,-0.068252 -0.00975,-0.063751 -0.02925,-0.04924 -0.045,-0.031494 -0.05899,-0.010498 -0.03676,0.00426 -0.03224,0.012741 -0.026,0.019745 -0.02001,0.027252 0.00701,-0.088242 0.02099,-0.064759 0.0345,-0.039749 0.0455,-0.013244 0.0495,0.014999 0.02851,0.044998 0.05899,-0.011001 -0.04799,-0.07425 -0.08801,-0.024749 -0.0725,0.017257 -0.0535,0.051743 -0.033,0.084244 -0.011,0.1147457 0.0105,0.1049953 0.03151,0.076996 0.05224,0.046509 0.07076,0.015503 z m -0.1045,-0.04776 -0.03074,-0.026245 -0.02025,-0.041 -0.00676,-0.050995 0.0065,-0.040008 0.0195,-0.029999 0.03,-0.018738 0.03801,-0.00624 0.03999,0.00725 0.03,0.021729 0.01875,0.033997 0.00624,0.046005 -0.00624,0.047257 -0.01875,0.035751 -0.02949,0.022492 -0.0385,0.00751 z m 0.8993096,-0.1602474 0.0045,-0.049484 0.01351,-0.036499 0.02224,-0.023254 0.02875,-0.00775 0.0255,0.00525 0.01651,0.015762 0.009,0.029495 0.003,0.046478 0,0.2390137 0.06101,0 0,-0.2190094 0.0045,-0.049484 0.0135,-0.036499 0.0215,-0.023254 0.02849,-0.00775 0.026,0.00525 0.01601,0.015762 0.009,0.029495 0.003,0.046478 0,0.2390137 0.06101,0 0,-0.2509918 -0.0055,-0.061005 -0.01651,-0.041 -0.0285,-0.023239 -0.04149,-0.00775 -0.03076,0.00424 -0.02625,0.012756 -0.02125,0.0215 -0.01874,0.032501 -0.01126,-0.031998 -0.01775,-0.022003 -0.02475,-0.012756 -0.03224,-0.00424 -0.02951,0.004 -0.02449,0.011994 -0.02075,0.021255 -0.01926,0.033752 -0.003,-0.070999 -0.05801,0 0.002,0.082 0,0.3019867 0.06099,0 z m -0.5722496,0 0.0045,-0.049484 0.01351,-0.036499 0.02224,-0.023254 0.02875,-0.00775 0.02548,0.00525 0.01651,0.015762 0.00901,0.029495 0.00299,0.046478 0,0.2390137 0.061,0 0,-0.2190094 0.0045,-0.049484 0.01351,-0.036499 0.0215,-0.023254 0.02848,-0.00775 0.02601,0.00525 0.016,0.015762 0.009,0.029495 0.003,0.046478 0,0.2390137 0.061,0 0,-0.2509918 -0.00549,-0.061005 -0.01651,-0.041 -0.02851,-0.023239 -0.04149,-0.00775 -0.03076,0.00424 -0.02624,0.012756 -0.02126,0.0215 -0.01874,0.032501 -0.01126,-0.031998 -0.01774,-0.022003 -0.02475,-0.012756 -0.03224,-0.00424 -0.0295,0.004 -0.02449,0.011994 -0.02075,0.021255 -0.01926,0.033752 -0.00299,-0.070999 -0.05801,0 0.00201,0.082 0,0.3019867 0.06099,0 z m -8.43800281,-5.1828306 -0.022888,-0.00549 -0.021744,-0.00901 -0.020081,-0.01229 -0.017899,-0.01529 -0.015274,-0.0179 -0.012298,-0.02007 -0.009018,-0.02176 -0.005494,-0.02287 -0.001846,-0.02347 0.001846,-0.02347 0.005494,-0.02288 0.009018,-0.02175 0.012298,-0.02006 0.015274,-0.0179 0.017899,-0.01529 0.020081,-0.0123 0.021744,-0.00902 0.022888,-0.00549 0.023453,-0.00185 0.023453,0.00185 0.022888,0.00549 0.021744,0.00902 0.020081,0.0123 0.017899,0.01529 0.015274,0.0179 0.012298,0.02006 0.00902,0.02175 0.00549,0.02288 0.00185,0.02347 -0.00185,0.02347 -0.00549,0.02287 -0.00902,0.02176 -0.012298,0.02007 -0.015274,0.0179 -0.017899,0.01529 -0.020081,0.01229 -0.021744,0.00901 -0.022888,0.00549 -0.023453,0.00185 z m 1.94998281,0.10001 -0.02289,-0.0055 -0.02174,-0.00902 -0.02007,-0.01229 -0.0179,-0.01529 -0.01529,-0.0179 -0.01229,-0.02007 -0.00902,-0.02174 -0.0055,-0.02289 -0.00184,-0.02347 0.00184,-0.02346 0.0055,-0.02288 0.00902,-0.02176 0.01229,-0.02006 0.01529,-0.0179 0.0179,-0.01529 0.02007,-0.0123 0.02174,-0.009 0.02289,-0.00549 0.02347,-0.00185 0.02346,0.00185 0.02288,0.00549 0.02176,0.009 0.02006,0.0123 0.0179,0.01529 0.01529,0.0179 0.0123,0.02006 0.009,0.02176 0.00549,0.02288 0.00185,0.02346 -0.00185,0.02347 -0.00549,0.02289 -0.009,0.02174 -0.0123,0.02007 -0.01529,0.0179 -0.0179,0.01529 -0.02006,0.01229 -0.02176,0.00902 -0.02288,0.0055 -0.02346,0.00184 z m -3.89999,0 -0.02288,-0.0055 -0.02176,-0.00902 -0.02006,-0.01229 -0.0179,-0.01529 -0.01529,-0.0179 -0.0123,-0.02007 -0.009,-0.02174 -0.00549,-0.02289 -0.00185,-0.02347 0.00185,-0.02346 0.00549,-0.02288 0.009,-0.02176 0.0123,-0.02006 0.01529,-0.0179 0.0179,-0.01529 0.02006,-0.0123 0.02176,-0.009 0.02288,-0.00549 0.02346,-0.00185 0.02347,0.00185 0.02289,0.00549 0.02174,0.009 0.02007,0.0123 0.0179,0.01529 0.01529,0.0179 0.01229,0.02006 0.00902,0.02176 0.0055,0.02288 0.00184,0.02346 -0.00184,0.02347 -0.0055,0.02289 -0.00902,0.02174 -0.01229,0.02007 -0.01529,0.0179 -0.0179,0.01529 -0.02007,0.01229 -0.02174,0.00902 -0.02289,0.0055 -0.02347,0.00184 z m -1.85,0.89999 -0.02288,-0.00549 -0.02175,-0.00901 -0.02006,-0.01229 -0.0179,-0.01529 -0.01529,-0.0179 -0.0123,-0.02007 -0.00902,-0.02176 -0.00549,-0.02287 -0.00185,-0.02347 0.00185,-0.02347 0.00549,-0.02288 0.00902,-0.02175 0.0123,-0.02006 0.01529,-0.0179 0.0179,-0.01529 0.02006,-0.0123 0.02175,-0.00902 0.02288,-0.00549 0.02347,-0.00185 0.02347,0.00185 0.02287,0.00549 0.02176,0.00902 0.02007,0.0123 0.0179,0.01529 0.01529,0.0179 0.01229,0.02006 0.00901,0.02175 0.00549,0.02288 0.00185,0.02347 -0.00185,0.02347 -0.00549,0.02287 -0.00901,0.02176 -0.01229,0.02007 -0.01529,0.0179 -0.0179,0.01529 -0.02007,0.01229 -0.02176,0.00901 -0.02287,0.00549 -0.02347,0.00185 z m 7.59998,0 -0.02287,-0.00549 -0.02176,-0.00901 -0.02007,-0.01229 -0.0179,-0.01529 -0.01529,-0.0179 -0.01229,-0.02007 -0.00901,-0.02176 -0.00549,-0.02287 -0.00185,-0.02347 0.00185,-0.02347 0.00549,-0.02288 0.00901,-0.02175 0.01229,-0.02006 0.01529,-0.0179 0.0179,-0.01529 0.02007,-0.0123 0.02176,-0.00902 0.02287,-0.00549 0.02347,-0.00185 0.02347,0.00185 0.02288,0.00549 0.02175,0.00902 0.02006,0.0123 0.0179,0.01529 0.01529,0.0179 0.0123,0.02006 0.00902,0.02175 0.00549,0.02288 0.00185,0.02347 -0.00185,0.02347 -0.00549,0.02287 -0.00902,0.02176 -0.0123,0.02007 -0.01529,0.0179 -0.0179,0.01529 -0.02006,0.01229 -0.02175,0.00901 -0.02288,0.00549 -0.02347,0.00185 z m -5.79997,0.69999999 -0.02289,-0.0055 -0.02174,-0.009 -0.02009,-0.0123 -0.01789,-0.01529 -0.01528,-0.0179 -0.0123,-0.02006 -0.00901,-0.02174 -0.0055,-0.02289 -0.00184,-0.02347 0.00184,-0.02347 0.0055,-0.02289 0.00901,-0.02174 0.0123,-0.02007 0.01528,-0.01789 0.01789,-0.01529 0.02009,-0.0123 0.02174,-0.00901 0.02289,-0.00549 0.02345,-0.00186 0.02347,0.00186 0.02289,0.00549 0.02174,0.00901 0.02008,0.0123 0.0179,0.01529 0.01527,0.01789 0.0123,0.02007 0.00902,0.02174 0.00549,0.02289 0.00185,0.02347 -0.00185,0.02347 -0.00549,0.02289 -0.00902,0.02174 -0.0123,0.02006 -0.01527,0.0179 -0.0179,0.01529 -0.02008,0.0123 -0.02174,0.009 -0.02289,0.0055 -0.02347,0.00184 z m 3.99998,0 -0.02289,-0.0055 -0.02174,-0.009 -0.02008,-0.0123 -0.0179,-0.01529 -0.01527,-0.0179 -0.0123,-0.02006 -0.00902,-0.02174 -0.00549,-0.02289 -0.00185,-0.02347 0.00185,-0.02347 0.00549,-0.02289 0.00902,-0.02174 0.0123,-0.02007 0.01527,-0.01789 0.0179,-0.01529 0.02008,-0.0123 0.02174,-0.00901 0.02289,-0.00549 0.02347,-0.00186 0.02345,0.00186 0.02289,0.00549 0.02174,0.00901 0.02009,0.0123 0.01789,0.01529 0.01528,0.01789 0.0123,0.02007 0.00901,0.02174 0.0055,0.02289 0.00184,0.02347 -0.00184,0.02347 -0.0055,0.02289 -0.00901,0.02174 -0.0123,0.02006 -0.01528,0.0179 -0.01789,0.01529 -0.02009,0.0123 -0.02174,0.009 -0.02289,0.0055 -0.02345,0.00184 z m -6.64999,0.6 -0.02289,-0.00549 -0.02174,-0.00902 -0.02007,-0.0123 -0.0179,-0.01527 -0.01529,-0.0179 -0.0123,-0.02008 -0.009,-0.02174 -0.00549,-0.02289 -0.00185,-0.02347 0.00185,-0.02345 0.00549,-0.02289 0.009,-0.02174 0.0123,-0.02009 0.01529,-0.01789 0.0179,-0.01528 0.02007,-0.0123 0.02174,-0.00901 0.02289,-0.0055 0.02347,-0.00184 0.02346,0.00184 0.02289,0.0055 0.02175,0.00901 0.02006,0.0123 0.0179,0.01528 0.01529,0.01789 0.0123,0.02009 0.009,0.02174 0.00549,0.02289 0.00185,0.02345 -0.00185,0.02347 -0.00549,0.02289 -0.009,0.02174 -0.0123,0.02008 -0.01529,0.0179 -0.0179,0.01527 -0.02006,0.0123 -0.02175,0.00902 -0.02289,0.00549 -0.02346,0.00185 z m 9.29999,0 -0.02289,-0.00549 -0.02175,-0.00902 -0.02006,-0.0123 -0.0179,-0.01527 -0.01529,-0.0179 -0.0123,-0.02008 -0.009,-0.02174 -0.00549,-0.02289 -0.00185,-0.02347 0.00185,-0.02345 0.00549,-0.02289 0.009,-0.02174 0.0123,-0.02009 0.01529,-0.01789 0.0179,-0.01528 0.02006,-0.0123 0.02175,-0.00901 0.02289,-0.0055 0.02346,-0.00184 0.02347,0.00184 0.02289,0.0055 0.02174,0.00901 0.02007,0.0123 0.0179,0.01528 0.01529,0.01789 0.0123,0.02009 0.009,0.02174 0.00549,0.02289 0.00185,0.02345 -0.00185,0.02347 -0.00549,0.02289 -0.009,0.02174 -0.0123,0.02008 -0.01529,0.0179 -0.0179,0.01527 -0.02007,0.0123 -0.02174,0.00902 -0.02289,0.00549 -0.02347,0.00185 z m 1.00715,5.14183001 0.16776,-0.405 0.22345,-0.930751 0.0751,-0.954239 -0.0751,-0.954239 -0.22345,-0.93075101 -0.17189,-0.415 1.37013,0 -0.1704,0.46813001 0.0094,0.00341 0.16132,-0.44323031 0,4.54338001 -0.16132,-0.44325 -0.0094,0.00341 0.16677,0.45813 z m -11.03367,0.01 0,-4.59998001 2.3,0 0,4.59998001 z m 8.50999,-0.01 0,-2.28999 -0.00999,0 -2e-5,-2.29999001 2.3,0 0,4.58998001 z m -5.62564,-3.141217 -0.01526,-0.00366 -0.01449,-0.006 -0.01339,-0.00821 -0.01193,-0.010193 -0.01018,-0.011932 -0.00821,-0.013367 -0.00599,-0.014511 -0.00366,-0.015243 -0.00124,-0.015656 0.00124,-0.01564 0.00366,-0.015259 0.00599,-0.014496 0.00821,-0.013378 0.01018,-0.01194 0.01193,-0.01019 0.01339,-0.00819 0.01449,-0.00601 0.01526,-0.00367 0.01564,-0.00122 0.01566,0.00122 0.01525,0.00367 0.0145,0.00601 0.01338,0.00819 0.01193,0.01019 0.01018,0.01194 0.00821,0.013378 0.006,0.014496 0.00366,0.015259 0.00124,0.01564 -0.00124,0.015656 -0.00366,0.015243 -0.006,0.014511 -0.00821,0.013367 -0.01018,0.011932 -0.01193,0.010193 -0.01338,0.00821 -0.0145,0.006 -0.01525,0.00366 -0.01566,0.00124 z m 4.99998,0 -0.01525,-0.00366 -0.0145,-0.006 -0.01338,-0.00821 -0.01193,-0.010193 -0.01018,-0.011932 -0.00821,-0.013367 -0.006,-0.014511 -0.00366,-0.015243 -0.00124,-0.015656 0.00124,-0.01564 0.00366,-0.015259 0.006,-0.014496 0.00821,-0.013378 0.01018,-0.01194 0.01193,-0.01019 0.01338,-0.00819 0.0145,-0.00601 0.01525,-0.00367 0.01566,-0.00122 0.01564,0.00122 0.01526,0.00367 0.01449,0.00601 0.01339,0.00819 0.01193,0.01019 0.01018,0.01194 0.00821,0.013378 0.00599,0.014496 0.00366,0.015259 0.00124,0.01564 -0.00124,0.015656 -0.00366,0.015243 -0.00599,0.014511 -0.00821,0.013367 -0.01018,0.011932 -0.01193,0.010193 -0.01339,0.00821 -0.01449,0.006 -0.01526,0.00366 -0.01564,0.00123 z M 0.74564679,3.2627161 0.6312218,3.2352501 l -0.108735,-0.045044 -0.100341,-0.061493 -0.089493,-0.076431 -0.076431,-0.089493 -0.061493,-0.100341 -0.045044,-0.108735 -0.027466,-0.114425 -0.009247,-0.117325 0.009247,-0.117325 0.027466,-0.114425 0.045044,-0.108735 0.061493,-0.100341 0.076431,-0.089493 0.089493,-0.076431 0.100341,-0.061493 0.108735,-0.045044 0.11442499,-0.027466 0.117325,-0.00925 0.117325,0.00925 0.11442501,0.027466 0.108735,0.045044 0.100341,0.061493 0.089493,0.076431 0.076431,0.089493 0.061493,0.100341 0.045044,0.108735 0.027466,0.114425 0.00925,0.117322 -0.00925,0.117325 -0.027466,0.114425 -0.045044,0.108735 -0.061493,0.100341 -0.076431,0.089493 -0.089493,0.076431 -0.100341,0.061493 -0.108735,0.045044 -0.11442501,0.027466 -0.117325,0.00925 z m 2.60166501,0.308017 -0.01525,-0.00367 -0.0145,-0.00601 -0.01338,-0.00819 -0.01193,-0.01019 -0.01018,-0.01194 -0.00821,-0.013378 -0.006,-0.014496 -0.00366,-0.015259 -0.00124,-0.01564 0.00124,-0.015656 0.00366,-0.015243 0.006,-0.014511 0.00821,-0.013367 0.01018,-0.011932 0.01193,-0.010193 0.01338,-0.00821 0.0145,-0.006 0.01525,-0.00366 0.01566,-0.00124 0.01564,0.00124 0.01526,0.00366 0.01449,0.006 0.01339,0.00821 0.01193,0.010193 0.01018,0.011932 0.00821,0.013367 0.00599,0.014511 0.00366,0.015243 0.00124,0.015656 -0.00124,0.01564 -0.00366,0.015259 -0.00599,0.014496 -0.00821,0.013378 -0.01018,0.01194 -0.01193,0.01019 -0.01339,0.00819 -0.01449,0.00601 -0.01526,0.00367 -0.01564,0.00122 z m -4.99998,0 -0.01526,-0.00367 -0.01449,-0.00601 -0.01339,-0.00819 -0.01193,-0.01019 -0.01018,-0.01194 -0.00821,-0.013378 -0.00599,-0.014496 -0.00366,-0.015259 -0.00124,-0.01564 0.00124,-0.015656 0.00366,-0.015243 0.00599,-0.014511 0.00821,-0.013367 0.01018,-0.011932 0.01193,-0.010193 0.01339,-0.00821 0.01449,-0.006 0.01526,-0.00366 0.01564,-0.00124 0.01566,0.00124 0.01525,0.00366 0.0145,0.006 0.01338,0.00821 0.01193,0.010193 0.01018,0.011932 0.00821,0.013367 0.006,0.014511 0.00366,0.015243 0.00124,0.015656 -0.00124,0.01564 -0.00366,0.015259 -0.006,0.014496 -0.00821,0.013378 -0.01018,0.01194 -0.01193,0.01019 -0.01338,0.00819 -0.0145,0.00601 -0.01525,0.00367 -0.01566,0.00122 z m 3.99217,0.89938 -0.02289,-0.00549 -0.02174,-0.00902 -0.02008,-0.0123 -0.0179,-0.01529 -0.01527,-0.0179 -0.0123,-0.02006 -0.00902,-0.02175 -0.00549,-0.02288 -0.00185,-0.02347 0.00185,-0.02347 0.00549,-0.02287 0.00902,-0.02176 0.0123,-0.02007 0.01527,-0.0179 0.0179,-0.01529 0.02008,-0.01229 0.02174,-0.00901 0.02289,-0.00549 0.02347,-0.00185 0.02345,0.00185 0.02289,0.00549 0.02174,0.00901 0.02009,0.01229 0.01789,0.01529 0.01528,0.0179 0.0123,0.02007 0.00901,0.02176 0.0055,0.02287 0.00184,0.02347 -0.00184,0.02347 -0.0055,0.02288 -0.00901,0.02175 -0.0123,0.02006 -0.01528,0.0179 -0.01789,0.01529 -0.02009,0.0123 -0.02174,0.00902 -0.02289,0.00549 -0.02345,0.00185 z m -2.99998,0 -0.02289,-0.00549 -0.02174,-0.00902 -0.02009,-0.0123 -0.01789,-0.01529 -0.01528,-0.0179 -0.0123,-0.02006 -0.00901,-0.02175 -0.0055,-0.02288 -0.00184,-0.02347 0.00184,-0.02347 0.0055,-0.02287 0.00901,-0.02176 0.0123,-0.02007 0.01528,-0.0179 0.01789,-0.01529 0.02009,-0.01229 0.02174,-0.00901 0.02289,-0.00549 0.02345,-0.00185 0.02347,0.00185 0.02289,0.00549 0.02174,0.00901 0.02008,0.01229 0.0179,0.01529 0.01527,0.0179 0.0123,0.02007 0.00902,0.02176 0.00549,0.02287 0.00185,0.02347 -0.00185,0.02347 -0.00549,0.02288 -0.00902,0.02175 -0.0123,0.02006 -0.01527,0.0179 -0.0179,0.01529 -0.02008,0.0123 -0.02174,0.00902 -0.02289,0.00549 -0.02347,0.00185 z m 4.63345,4.1418504 0,-0.86362 0.47548,-0.29138 0.72786,-0.62166 0.62166,-0.7278604 0.46499,-0.7588 0,3.2633204 z m 0.66652,-1.64185 -0.02287,-0.0055 -0.02176,-0.009 -0.02007,-0.0123 -0.0179,-0.01529 -0.01529,-0.0179 -0.01229,-0.02006 -0.00901,-0.02175 -0.00549,-0.02288 -0.00185,-0.02347 0.00185,-0.02347 0.00549,-0.02287 0.00901,-0.02176 0.01229,-0.02007 0.01529,-0.0179 0.0179,-0.01529 0.02007,-0.01229 0.02176,-0.009 0.02287,-0.0055 0.02347,-0.0018 0.02347,0.0018 0.02288,0.0055 0.02175,0.009 0.02006,0.01229 0.0179,0.01529 0.01529,0.0179 0.0123,0.02007 0.00902,0.02176 0.00549,0.02287 0.00185,0.02347 -0.00185,0.02347 -0.00549,0.02288 -0.00902,0.02175 -0.0123,0.02006 -0.01529,0.0179 -0.0179,0.01529 -0.02006,0.0123 -0.02175,0.009 -0.02288,0.0055 -0.02347,0.0019 z m -7.59998,0 -0.02288,-0.0055 -0.02175,-0.009 -0.02006,-0.0123 -0.0179,-0.01529 -0.01529,-0.0179 -0.0123,-0.02006 -0.00902,-0.02175 -0.00549,-0.02288 -0.00185,-0.02347 0.00185,-0.02347 0.00549,-0.02287 0.00902,-0.02176 0.0123,-0.02007 0.01529,-0.0179 0.0179,-0.01529 0.02006,-0.01229 0.02175,-0.009 0.02288,-0.0055 0.02347,-0.0018 0.02347,0.0018 0.02287,0.0055 0.02176,0.009 0.02007,0.01229 0.0179,0.01529 0.01529,0.0179 0.01229,0.02007 0.00901,0.02176 0.00549,0.02287 0.00185,0.02347 -0.00185,0.02347 -0.00549,0.02288 -0.00901,0.02175 -0.01229,0.02006 -0.01529,0.0179 -0.0179,0.01529 -0.02007,0.0123 -0.02176,0.009 -0.02287,0.0055 -0.02347,0.0019 z m 1.85,0.89999 -0.02288,-0.0055 -0.02176,-0.009 -0.02006,-0.0123 -0.0179,-0.01529 -0.01529,-0.0179 -0.0123,-0.02006 -0.009,-0.02176 -0.00549,-0.02288 -0.00185,-0.02346 0.00185,-0.02347 0.00549,-0.02289 0.009,-0.02174 0.0123,-0.02007 0.01529,-0.0179 0.0179,-0.01529 0.02006,-0.01229 0.02176,-0.009 0.02288,-0.0055 0.02346,-0.0018 0.02347,0.0018 0.02289,0.0055 0.02174,0.009 0.02007,0.01229 0.0179,0.01529 0.01529,0.0179 0.01229,0.02007 0.00902,0.02174 0.0055,0.02289 0.00184,0.02347 -0.00184,0.02346 -0.0055,0.02288 -0.00902,0.02176 -0.01229,0.02006 -0.01529,0.0179 -0.0179,0.01529 -0.02007,0.0123 -0.02174,0.009 -0.02289,0.0055 -0.02347,0.0018 z m 3.89999,0 -0.02289,-0.0055 -0.02174,-0.009 -0.02007,-0.0123 -0.0179,-0.01529 -0.01529,-0.0179 -0.01229,-0.02006 -0.00902,-0.02176 -0.0055,-0.02288 -0.00184,-0.02346 0.00184,-0.02347 0.0055,-0.02289 0.00902,-0.02174 0.01229,-0.02007 0.01529,-0.0179 0.0179,-0.01529 0.02007,-0.01229 0.02174,-0.009 0.02289,-0.0055 0.02347,-0.0018 0.02346,0.0018 0.02288,0.0055 0.02176,0.009 0.02006,0.01229 0.0179,0.01529 0.01529,0.0179 0.0123,0.02007 0.009,0.02174 0.00549,0.02289 0.00185,0.02347 -0.00185,0.02346 -0.00549,0.02288 -0.009,0.02176 -0.0123,0.02006 -0.01529,0.0179 -0.0179,0.01529 -0.02006,0.0123 -0.02176,0.009 -0.02288,0.0055 -0.02346,0.0018 z m -1.79954601,0.74186 0.82725501,-0.06511 0.930751,-0.22345 0.88434,-0.36631 0.33068,-0.20263 0,0.8575 z m 3.00131601,0.91 0.44325,-0.16132 -0.00342,-0.0094 -0.45813,0.16677 0,-0.89606 2.28999,0 0,0.8997 -0.46814,-0.17041 -0.00341,0.0094 0.44325,0.16132 z m -16.1183008,-10.25002041 0.1389,0 0,-0.053 -0.118,0 0,-0.45898999 -0.0209,0 0,-0.22404 0.4581,0.16674 0.0034,-0.00939 -0.4432,-0.16132 1.4434,0 -0.4432,0.1613 0.0034,0.0094 0.4681,-0.17038 0,0.35735 -0.019,0.0026 -0.0262,0.01276 -0.0213,0.0215 -0.0187,0.0325 -0.0113,-0.032 -0.0177,-0.022 -0.0247,-0.01276 -0.0323,-0.00424 -0.0295,0.004 -0.0245,0.01199 -0.0207,0.02126 -0.0193,0.03375 -0.003,-0.071 -0.058,0 0.002,0.082 0,0.30198999 0.061,0 0,-0.21901 0.0045,-0.04948 0.0135,-0.0365 0.0223,-0.02326 0.0287,-0.00775 0.0255,0.00525 0.0165,0.01576 0.009,0.0295 0.003,0.04648 0,0.23901 0.061,0 0,-0.21901 0.0045,-0.04948 0.0135,-0.0365 0.0215,-0.02326 0.0285,-0.00775 0.0112,0.00226 0,0.58373999 0.01,0 0,-0.58172999 0.0048,9.8e-4 0.016,0.01576 0.009,0.0295 0.003,0.04648 0,0.23901 0.061,0 0,-0.25099 -0.0055,-0.06101 -0.0165,-0.041 -0.0285,-0.02324 -0.0433,-0.0075 0,-1.36626 0.489701,0 6e-4,0.00171 0.0047,-0.00171 0.0047,0.00171 6e-4,-0.00171 0.9896998,0 0,-0.01001 -0.9860998,0 0.1667998,-0.45811 -0.0094,-0.00342 -0.1612998,0.44325 0,-0.9434 0.1612998,0.44323 0.0094,-0.00342 -0.1703998,-0.46812 0.9896998,0 0,-0.00999 -3.0000008,0 0,2.00967 -0.0017,6.3e-4 0.0017,0.00468 -0.0017,0.00468 0.0017,6.3e-4 0,0.22769 -0.026,0 -0.1141,0.069 0,0.05901 0.109,-0.069 0,0.39997999 -0.123,0 0,0.053 0.1541,0 0,0.25002 0.01,0 z m 1.49,-1.75998999 0,-0.18999 -1.3,0 0,-0.8 1.799701,0 -0.170401,0.46812 0.0094,0.00342 0.161301,-0.44323 0,0.9434 -0.161301,-0.44325 -0.0094,0.00342 0.166701,0.45811 z m -1.4717,1.01001 0.4432,-0.16132 -0.0034,-0.0094 -0.4581,0.16675 0,-0.99603 1.49,0 0,0.99968 -0.4681,-0.1704 -0.0034,0.0094 0.4432,0.16132 z m 2.8706008,-1.30301 -0.118,0 0,-0.45898 -0.057,0 -0.114,0.069 0,0.059 0.109,-0.069 0,0.39998 -0.123,0 0,0.05301 0.303,0 z m 0.29183,0.03676 0.05201,-0.04875 0.03151,-0.08075 0.01049,-0.11025 -0.01001,-0.11125 -0.02999,-0.07974 -0.051,-0.04875 -0.073,-0.01625 -0.07449,0.016 -0.05155,0.04799 -0.03,0.08 -0.01,0.112 0.0103,0.11025 0.0307,0.08075 0.0513,0.04875 0.07174,0.01625 z m -0.11773,-0.04701 -0.03226,-0.03675 -0.018,-0.06399 -0.006,-0.092 0.006,-0.09449 0.018,-0.0635 0.032,-0.03601 0.048,-0.01199 0.04625,0.01225 0.03075,0.03675 0.018,0.06324 0.006,0.09375 -0.00626,0.09075 -0.01873,0.06424 -0.03125,0.0375 -0.04576,0.0125 z m 0.34155,-0.15575 0.0045,-0.04948 0.01351,-0.0365 0.02224,-0.02326 0.02875,-0.00775 0.02548,0.00525 0.01651,0.01576 0.00901,0.0295 0.00299,0.04648 0,0.23901 0.061,0 0,-0.21901 0.0045,-0.04948 0.01351,-0.0365 0.0215,-0.02326 0.02848,-0.00775 0.02601,0.00525 0.016,0.01576 0.009,0.0295 0.003,0.04648 0,0.23901 0.061,0 0,-0.25099 -0.00549,-0.06101 -0.01651,-0.041 -0.02851,-0.02324 -0.04149,-0.00775 -0.03076,0.00424 -0.02624,0.01276 -0.02126,0.0215 -0.01874,0.0325 -0.01126,-0.032 -0.01774,-0.022 -0.02475,-0.01276 -0.03224,-0.00424 -0.0295,0.004 -0.02449,0.01199 -0.02075,0.02126 -0.01926,0.03375 -0.00299,-0.071 -0.05801,0 0.00201,0.082 0,0.30199 0.06099,0 z m 0.57225,0 0.0045,-0.04948 0.01351,-0.0365 0.02224,-0.02326 0.02875,-0.00775 0.0255,0.00525 0.01651,0.01576 0.009,0.0295 0.00299,0.04648 0,0.23901 0.06101,0 0,-0.21901 0.0045,-0.04948 0.0135,-0.0365 0.0215,-0.02326 0.02849,-0.00775 0.026,0.00525 0.01601,0.01576 0.009,0.0295 0.00299,0.04648 0,0.23901 0.06101,0 0,-0.25099 -0.0055,-0.06101 -0.01651,-0.041 -0.0285,-0.02324 -0.04149,-0.00775 -0.03076,0.00424 -0.02625,0.01276 -0.02125,0.0215 -0.01874,0.0325 -0.01126,-0.032 -0.01775,-0.022 -0.02475,-0.01276 -0.03224,-0.00424 -0.02951,0.004 -0.02449,0.01199 -0.02075,0.02126 -0.01926,0.03375 -0.00299,-0.071 -0.05801,0 0.00201,0.082 0,0.30199 0.06099,0 z m -3.5518008,2.20800999 0.0527,-0.03301 0.0338,-0.05325 0.0112,-0.06975 -0.0105,-0.06149 -0.0315,-0.04849 -0.048,-0.03226 -0.062,-0.01074 -0.054,0.00775 -0.044,0.02325 0.0091,-0.17001 0.213,0 0,-0.05299 -0.27,0 -0.0161,0.27796999 0.061,1e-5 0.021,-0.01623 0.021,-0.01075 0.0218,-0.00601 0.0232,-0.002 0.042,0.00725 0.032,0.02174 0.021,0.03275 0.007,0.04225 -0.0067,0.0475 -0.0203,0.0365 -0.0325,0.02251 -0.0435,0.00749 -0.0632,-0.01799 -0.0338,-0.054 -0.063,0.00699 0.0183,0.05026 0.0327,0.03674 0.0475,0.02175 0.0605,0.00726 z m 0.2296,-0.20801 0.0045,-0.04948 0.0135,-0.0365 0.0222,-0.02326 0.0288,-0.00775 0.0254,0.00525 0.0165,0.01576 0.009,0.0295 0.003,0.04648 0,0.23901 0.061,0 0,-0.21901 0.0045,-0.04948 0.0135,-0.0365 0.0215,-0.02326 0.0285,-0.00775 0.026,0.00525 0.016,0.01576 0.009,0.0295 0.003,0.04648 0,0.23901 0.061,0 0,-0.25099 -0.0055,-0.06101 -0.0165,-0.041 -0.0285,-0.02324 -0.0415,-0.00775 -0.0307,0.00424 -0.0263,0.01276 -0.0212,0.0215 -0.0188,0.0325 -0.0112,-0.032 -0.0178,-0.022 -0.0247,-0.01276 -0.0323,-0.00424 -0.0294,0.004 -0.0245,0.01199 -0.0208,0.02126 -0.0192,0.03375 -0.003,-0.071 -0.058,0 0.002,0.082 0,0.30198999 0.061,0 z m -0.6546,4.48296001 0.4581,0.16674 0.0034,-0.00939 -0.4432,-0.16132 1.943401,-2e-5 -0.443201,0.1613 0.0034,0.0094 0.468101,-0.17038 0,0.9897 0.01,0 0,-1.99998 0.9896998,0 6.1e-4,0.00171 0.00468,-0.00171 0.00468,0.00171 6.3e-4,-0.00171 0.9897,0 0,-0.01001 -0.98605,0 0.16674,-0.4581142 -0.00939,-0.00342 -0.16132,0.4432522 0,-0.9434052 0.1613,0.443237 0.0094,-0.00342 -0.17038,-0.468124 0.9897,0 0,-0.00999 -3.0000008,0 0,0.00999 -1,0 0,1.99968 -0.0017,6.3e-4 0.0017,0.00468 -0.0017,0.00468 0.0017,6.3e-4 0,0.9897 0.01,0 z m 1.990001,-1.0239598 0,-0.9899902 0.9996998,0 -0.1704,0.468124 0.0094,0.00342 0.1613,-0.443237 0,0.9434052 -0.1613,-0.4432522 -0.0094,0.00342 0.1667,0.4581142 z m -0.523501,-0.3418272 -0.0228,-0.00549 -0.0218,-0.00902 -0.0201,-0.012299 -0.0179,-0.015274 -0.0153,-0.017898 -0.0123,-0.020081 -0.009,-0.021744 -0.0054,-0.022888 -0.0019,-0.023468 0.0019,-0.023453 0.0054,-0.022888 0.009,-0.021744 0.0123,-0.02008 0.0153,-0.017899 0.0179,-0.015274 0.0201,-0.012298 0.0218,-0.00902 0.0228,-0.00549 0.0235,-0.00185 0.0235,0.00185 0.0229,0.00549 0.0217,0.00902 0.0201,0.012298 0.0179,0.015274 0.0153,0.017899 0.0123,0.02008 0.009,0.021744 0.0055,0.022888 0.0018,0.023453 -0.0018,0.023468 -0.0055,0.022888 -0.009,0.021744 -0.0123,0.020081 -0.0153,0.017898 -0.0179,0.015274 -0.0201,0.012299 -0.0217,0.00902 -0.0229,0.00549 -0.0235,0.00185 z m -1,0 -0.0228,-0.00549 -0.0218,-0.00902 -0.0201,-0.012299 -0.0179,-0.015274 -0.0153,-0.017898 -0.0123,-0.020081 -0.009,-0.021744 -0.0054,-0.022888 -0.0019,-0.023468 0.0019,-0.023453 0.0054,-0.022888 0.009,-0.021744 0.0123,-0.02008 0.0153,-0.017899 0.0179,-0.015274 0.0201,-0.012298 0.0218,-0.00902 0.0228,-0.00549 0.0235,-0.00185 0.0235,0.00185 0.0229,0.00549 0.0217,0.00902 0.0201,0.012298 0.0179,0.015274 0.0153,0.017899 0.0123,0.02008 0.009,0.021744 0.0055,0.022888 0.0018,0.023453 -0.0018,0.023468 -0.0055,0.022888 -0.009,0.021744 -0.0123,0.020081 -0.0153,0.017898 -0.0179,0.015274 -0.0201,0.012299 -0.0217,0.00902 -0.0229,0.00549 -0.0235,0.00185 z m -0.005,1.190521 -0.0034,-0.0094 -0.4581,0.166748 0,-0.996033 1.990001,0 0,0.999664 -0.468101,-0.170395 -0.0034,0.0094 0.443201,0.161316 -1.943401,1.5e-5 z m 3.4274308,-1.141693 -0.118,0 0,-0.458984 -0.05701,0 -0.114,0.069 0,0.059006 0.10901,-0.069001 0,0.399979 -0.123,0 0,0.053009 0.303,0 z m 0.2918,0.036758 0.05201,-0.048751 0.03151,-0.08075 0.01049,-0.110245 -0.01001,-0.111252 -0.02999,-0.079742 -0.051,-0.048752 -0.073,-0.01625 -0.07449,0.016006 -0.05151,0.047989 -0.03,0.080002 -0.01,0.111999 0.01026,0.110245 0.03074,0.08075 0.05126,0.048751 0.07174,0.016251 z m -0.11773,-0.047012 -0.03226,-0.036743 -0.018,-0.063995 -0.006,-0.091996 0.006,-0.094497 0.018,-0.063492 0.032,-0.036011 0.048,-0.011993 0.04625,0.012252 0.03075,0.036744 0.018,0.063247 0.006,0.09375 -0.00626,0.090744 -0.01873,0.06424 -0.03125,0.037506 -0.04576,0.012497 z m 0.9138,-0.155746 0.0045,-0.049485 0.01351,-0.036499 0.02224,-0.023254 0.02875,-0.00775 0.0255,0.00525 0.01651,0.015763 0.009,0.029495 0.00299,0.046478 0,0.239014 0.06101,0 0,-0.219009 0.0045,-0.049485 0.0135,-0.036499 0.0215,-0.023254 0.02849,-0.00775 0.026,0.00525 0.01601,0.015763 0.009,0.029495 0.00299,0.046478 0,0.239014 0.06101,0 0,-0.250992 -0.0055,-0.061004 -0.01651,-0.041001 -0.0285,-0.023239 -0.04149,-0.00775 -0.03076,0.00424 -0.02625,0.012756 -0.02125,0.021499 -0.01874,0.032502 -0.01126,-0.031998 -0.01775,-0.022003 -0.02475,-0.012756 -0.03224,-0.00424 -0.02951,0.004 -0.02449,0.011994 -0.02075,0.021255 -0.01926,0.033753 -0.00299,-0.070999 -0.05801,0 0.00201,0.082 0,0.301987 0.06099,0 z m -0.57225,0 0.0045,-0.049485 0.01351,-0.036499 0.02224,-0.023254 0.02875,-0.00775 0.02548,0.00525 0.01651,0.015763 0.00901,0.029495 0.00299,0.046478 0,0.239014 0.061,0 0,-0.219009 0.0045,-0.049485 0.01351,-0.036499 0.0215,-0.023254 0.02848,-0.00775 0.02601,0.00525 0.016,0.015763 0.009,0.029495 0.003,0.046478 0,0.239014 0.061,0 0,-0.250992 -0.00549,-0.061004 -0.01651,-0.041001 -0.02851,-0.023239 -0.04149,-0.00775 -0.03076,0.00424 -0.02624,0.012756 -0.02126,0.021499 -0.01874,0.032502 -0.01126,-0.031998 -0.01774,-0.022003 -0.02475,-0.012756 -0.03224,-0.00424 -0.0295,0.004 -0.02449,0.011994 -0.02075,0.021255 -0.01926,0.033753 -0.00299,-0.070999 -0.05801,0 0.00201,0.082 0,0.301987 0.06099,0 z m 20.5536492,0.666 -0.246,0 0.0132,-0.025497 0.0197,-0.026505 0.0268,-0.028748 0.093,-0.08525 0.0362,-0.036987 0.0218,-0.029739 0.0153,-0.029251 0.0097,-0.029007 0.0033,-0.028992 -0.0098,-0.05925 -0.0293,-0.043762 -0.0465,-0.026993 -0.0635,-0.009 -0.0599,0.00876 -0.0481,0.026245 -0.0325,0.039994 -0.0155,0.052001 0.063,0.006 0.0093,-0.0345 0.0198,-0.025497 0.0282,-0.016495 0.0347,-0.00551 0.0363,0.00601 0.0267,0.017991 0.0173,0.027999 0.0058,0.03801 -0.0033,0.029495 -0.0097,0.026504 -0.0153,0.023499 -0.0197,0.022491 -0.1021,0.092987 -0.0265,0.027496 -0.0255,0.030503 -0.0222,0.0345 -0.0188,0.039505 0,0.044006 0.3141,0 z m -0.3829,0 -0.246,0 0.0133,-0.025497 0.0197,-0.026505 0.0268,-0.028748 0.093,-0.08525 0.0362,-0.036987 0.0218,-0.029739 0.0152,-0.029251 0.0098,-0.029007 0.0032,-0.028992 -0.0097,-0.05925 -0.0293,-0.043762 -0.0465,-0.026993 -0.0635,-0.009 -0.06,0.00876 -0.048,0.026245 -0.0325,0.039994 -0.0155,0.052001 0.063,0.006 0.0093,-0.0345 0.0197,-0.025497 0.0283,-0.016495 0.0347,-0.00551 0.0363,0.00601 0.0267,0.017991 0.0173,0.027999 0.0057,0.03801 -0.0032,0.029495 -0.0098,0.026504 -0.0152,0.023499 -0.0198,0.022491 -0.102,0.092987 -0.0265,0.027496 -0.0255,0.030503 -0.0222,0.0345 -0.0188,0.039505 0,0.044006 0.314,0 z m -0.3778,0 -0.118,0 0,-0.458984 -0.057,0 -0.114,0.069 0,0.059006 0.109,-0.069001 0,0.399979 -0.123,0 0,0.053009 0.303,0 z m 1.4707,-0.1660004 0.0045,-0.049484 0.0135,-0.036499 0.0223,-0.023254 0.0287,-0.00775 0.0255,0.00525 0.0165,0.015762 0.009,0.029495 0.003,0.046478 0,0.2390137 0.061,0 0,-0.2190094 0.0045,-0.049484 0.0135,-0.036499 0.0215,-0.023254 0.0285,-0.00775 0.026,0.00525 0.016,0.015762 0.009,0.029495 0.003,0.046478 0,0.2390137 0.061,0 0,-0.2509918 -0.0055,-0.061005 -0.0165,-0.041 -0.0285,-0.023239 -0.0415,-0.00775 -0.0307,0.00424 -0.0263,0.012756 -0.0212,0.0215 -0.0188,0.032501 -0.0112,-0.031998 -0.0178,-0.022003 -0.0247,-0.012756 -0.0323,-0.00424 -0.0295,0.004 -0.0245,0.011994 -0.0207,0.021255 -0.0193,0.033752 -0.003,-0.070999 -0.058,0 0.002,0.082 0,0.3019867 0.061,0 z m -0.5723,0 0.0045,-0.049484 0.0135,-0.036499 0.0223,-0.023254 0.0287,-0.00775 0.0255,0.00525 0.0165,0.015762 0.0091,0.029495 0.0029,0.046478 0,0.2390137 0.061,0 0,-0.2190094 0.0045,-0.049484 0.0136,-0.036499 0.0215,-0.023254 0.0284,-0.00775 0.026,0.00525 0.016,0.015762 0.0091,0.029495 0.0029,0.046478 0,0.2390137 0.061,0 0,-0.2509918 -0.0054,-0.061005 -0.0166,-0.041 -0.0285,-0.023239 -0.0414,-0.00775 -0.0308,0.00424 -0.0263,0.012756 -0.0212,0.0215 -0.0187,0.032501 -0.0113,-0.031998 -0.0178,-0.022003 -0.0247,-0.012756 -0.0322,-0.00424 -0.0296,0.004 -0.0244,0.011994 -0.0208,0.021255 -0.0193,0.033752 -0.0029,-0.070999 -0.0581,0 0.0021,0.082 0,0.3019867 0.0609,0 z m -24.712,1.6659894 -0.246,0 0.0133,-0.0255 0.0197,-0.02651 0.0268,-0.02874 0.093,-0.08525 0.0362,-0.03699 0.0218,-0.02974 0.0152,-0.02925 0.0098,-0.02901 0.0032,-0.02899 -0.0097,-0.05925 -0.0293,-0.04376 -0.0465,-0.027 -0.0635,-0.009 -0.06,0.00876 -0.048,0.02624 -0.0325,0.04 -0.0155,0.052 0.063,0.006 0.0093,-0.0345 0.0197,-0.0255 0.0283,-0.0165 0.0347,-0.0055 0.0363,0.00601 0.0267,0.01799 0.0173,0.028 0.0057,0.03801 -0.0032,0.02949 -0.0098,0.02651 -0.0152,0.0235 -0.0198,0.02249 -0.102,0.09298 -0.0265,0.0275 -0.0255,0.0305 -0.0222,0.0345 -0.0188,0.03951 0,0.044 0.314,0 z m 0.2968,0.03677 0.052,-0.04875 0.0315,-0.08075 0.0105,-0.11025 -0.01,-0.11125 -0.0299,-0.07974 -0.051,-0.04875 -0.073,-0.01625 -0.0745,0.016 -0.0516,0.04799 -0.03,0.07999 -0.01,0.112 0.0103,0.11024 0.0307,0.08077 0.0513,0.04875 0.0717,0.01625 z m -0.1177,-0.04701 -0.0323,-0.03675 -0.018,-0.06399 -0.006,-0.092 0.006,-0.09449 0.0181,-0.0635 0.032,-0.03601 0.048,-0.01199 0.0462,0.01225 0.0308,0.03675 0.0179,0.06324 0.006,0.09375 -0.0062,0.09075 -0.0188,0.06424 -0.0312,0.0375 -0.0458,0.0125 z m 0.9138,-0.15575 0.0045,-0.04948 0.0135,-0.03652 0.0223,-0.02325 0.0287,-0.00775 0.0255,0.00525 0.0165,0.01576 0.009,0.02949 0.003,0.04648 0,0.23901 0.061,0 0,-0.219 0.0045,-0.04949 0.0135,-0.0365 0.0215,-0.02325 0.0285,-0.00775 0.026,0.00525 0.016,0.01576 0.009,0.02949 0.003,0.04648 0,0.23901 0.061,0 0,-0.25099 -0.0055,-0.061 -0.0165,-0.041 -0.0285,-0.02324 -0.0415,-0.00775 -0.0308,0.00424 -0.0262,0.01276 -0.0213,0.0215 -0.0187,0.0325 -0.0113,-0.032 -0.0177,-0.022 -0.0247,-0.01276 -0.0323,-0.00424 -0.0295,0.004 -0.0245,0.01199 -0.0207,0.02125 -0.0193,0.03377 -0.003,-0.071 -0.058,0 0.002,0.082 0,0.30199 0.061,0 z m -0.5722,0 0.0045,-0.04948 0.0135,-0.0365 0.0222,-0.02326 0.0288,-0.00775 0.0254,0.00525 0.0165,0.01576 0.009,0.0295 0.003,0.04648 0,0.23901 0.061,0 0,-0.21901 0.0045,-0.04948 0.0135,-0.0365 0.0215,-0.02326 0.0285,-0.00775 0.026,0.00525 0.016,0.01576 0.009,0.0295 0.003,0.04648 0,0.23901 0.061,0 0,-0.25099 -0.0055,-0.06101 -0.0165,-0.041 -0.0285,-0.02324 -0.0415,-0.00775 -0.0307,0.00424 -0.0263,0.01276 -0.0212,0.0215 -0.0188,0.0325 -0.0112,-0.032 -0.0178,-0.022 -0.0247,-0.01276 -0.0323,-0.00424 -0.0294,0.004 -0.0245,0.01199 -0.0208,0.02126 -0.0192,0.03375 -0.003,-0.071 -0.058,0 0.002,0.082 0,0.30199 0.061,0 z m -0.9046,4.9829604 0.4581,0.16674 0.0034,-0.0094 -0.4432,-0.16132 1.943401,0 -0.443201,0.1613 0.0034,0.0094 0.468101,-0.17038 0,0.9896995 0.01,-2e-5 0,-1.9999795 0.9896998,0 6.1e-4,0.0017 0.00468,-0.0017 0.00468,0.0017 6.3e-4,-0.0017 0.9897,0 0,-0.01001 -0.98605,0 0.16674,-0.45811 -0.00939,-0.0034 -0.16132,0.44325 0,-1.4434 0.1613,0.44323 0.0094,-0.0034 -0.17038,-0.46812 0.9897,0 0,-0.00999 -3.0000008,0 0,0.00999 -1,0 0,2.49968 -0.0017,6.3e-4 0.0017,0.0047 -0.0017,0.0047 0.0017,6.3e-4 0,0.9896995 0.01,0 z m 2.000001,-1.02396 0,-1.48999 0.9896998,0 -0.1704,0.46812 0.0094,0.0034 0.1613,-0.44323 0,1.4434 -0.1613,-0.44325 -0.0094,0.0034 0.1667,0.45811 z m -0.942001,0 0.0093,-0.0022 0.0362,-0.01501 0.0335,-0.02051 0.0298,-0.02547 0.0255,-0.02983 0.797701,-1.19694 0,1.28999 z m -1.0397,1.01001 0.4432,-0.16132 -0.0034,-0.0094 -0.4581,0.16675 0,-2.28102 0.7878,1.18193 0.0254,0.02983 0.0299,0.02547 0.0334,0.02051 0.0363,0.01501 0.0381,0.0092 0.0391,0.0031 1.000001,0 0,0.99968 -0.468101,-0.1704 -0.0034,0.0094 0.443201,0.16132 z m 0.9482,-1.35185 -0.0228,-0.0055 -0.0218,-0.009 -0.0201,-0.0123 -0.0179,-0.01528 -0.0153,-0.01789 -0.0123,-0.02009 -0.009,-0.02174 -0.0054,-0.02289 -0.0019,-0.02345 0.0019,-0.02347 0.0054,-0.02289 0.009,-0.02174 0.0123,-0.02008 0.0153,-0.0179 0.0179,-0.01527 0.0201,-0.0123 0.0218,-0.009 0.0228,-0.0055 0.0235,-0.0019 0.0235,0.0019 0.0229,0.0055 0.0217,0.009 0.0201,0.0123 0.0179,0.01527 0.0153,0.0179 0.0123,0.02008 0.009,0.02174 0.0055,0.02289 0.0018,0.02347 -0.0018,0.02345 -0.0055,0.02289 -0.009,0.02174 -0.0123,0.02009 -0.0153,0.01789 -0.0179,0.01528 -0.0201,0.0123 -0.0217,0.009 -0.0229,0.0055 -0.0235,0.0018 z m 3.2085008,-0.15915 0.05275,-0.03301 0.03373,-0.05325 0.01127,-0.06975 -0.0105,-0.06149 -0.03151,-0.04849 -0.04799,-0.03226 -0.06201,-0.01074 -0.054,0.0077 -0.04399,0.02325 0.009,-0.17001 0.213,0 0,-0.05299 -0.27001,0 -0.01601,0.27798 0.06101,0 0.021,-0.01623 0.02101,-0.01075 0.02174,-0.006 0.02325,-0.002 0.042,0.0073 0.03199,0.02174 0.02102,0.03275 0.00698,0.04225 -0.00674,0.0475 -0.02025,0.0365 -0.0325,0.02251 -0.0435,0.0075 -0.06325,-0.01799 -0.03375,-0.054 -0.06299,0.007 0.01825,0.05026 0.03274,0.03674 0.0475,0.02175 0.06051,0.0073 z m -0.28607,-0.04201 -0.118,0 0,-0.45898 -0.05701,0 -0.114,0.069 0,0.059 0.10901,-0.069 0,0.39998 -0.123,0 0,0.05301 0.303,0 z m 1.08787,-0.166 0.0045,-0.04948 0.01351,-0.0365 0.02224,-0.02326 0.02875,-0.0077 0.0255,0.0052 0.01651,0.01576 0.009,0.0295 0.00299,0.04648 0,0.23901 0.06101,0 0,-0.21901 0.0045,-0.04948 0.0135,-0.0365 0.0215,-0.02326 0.02849,-0.0077 0.026,0.0052 0.01601,0.01576 0.009,0.0295 0.00299,0.04648 0,0.23901 0.06101,0 0,-0.25099 -0.0055,-0.06101 -0.01651,-0.041 -0.0285,-0.02324 -0.04149,-0.0077 -0.03076,0.0042 -0.02625,0.01276 -0.02125,0.0215 -0.01874,0.0325 -0.01126,-0.032 -0.01775,-0.022 -0.02475,-0.01276 -0.03224,-0.0042 -0.02951,0.004 -0.02449,0.01199 -0.02075,0.02126 -0.01926,0.03375 -0.00299,-0.071 -0.05801,0 0.00201,0.082 0,0.30199 0.06099,0 z m -0.57225,0 0.0045,-0.04948 0.01351,-0.0365 0.02224,-0.02326 0.02875,-0.0077 0.02548,0.0052 0.01651,0.01576 0.00901,0.0295 0.00299,0.04648 0,0.23901 0.061,0 0,-0.21901 0.0045,-0.04948 0.01351,-0.0365 0.0215,-0.02326 0.02848,-0.0077 0.02601,0.0052 0.016,0.01576 0.009,0.0295 0.003,0.04648 0,0.23901 0.061,0 0,-0.25099 -0.00549,-0.06101 -0.01651,-0.041 -0.02851,-0.02324 -0.04149,-0.0077 -0.03076,0.0042 -0.02624,0.01276 -0.02126,0.0215 -0.01874,0.0325 -0.01126,-0.032 -0.01774,-0.022 -0.02475,-0.01276 -0.03224,-0.0042 -0.0295,0.004 -0.02449,0.01199 -0.02075,0.02126 -0.01926,0.03375 -0.00299,-0.071 -0.05801,0 0.00201,0.082 0,0.30199 0.06099,0 z m -3.7238508,2.4527596 0.052,-0.04875 0.0315,-0.08075 0.0105,-0.11025 -0.01,-0.11125 -0.0299,-0.07974 -0.051,-0.04875 -0.073,-0.01625 -0.0745,0.016 -0.0516,0.04799 -0.03,0.08 -0.01,0.112 0.0103,0.11025 0.0307,0.08075 0.0513,0.04875 0.0717,0.01625 z m -0.1177,-0.04701 -0.0323,-0.03675 -0.018,-0.06399 -0.006,-0.092 0.006,-0.09449 0.0181,-0.0635 0.032,-0.03601 0.048,-0.01199 0.0462,0.01225 0.0308,0.03675 0.0179,0.06324 0.006,0.09375 -0.0062,0.09075 -0.0188,0.06424 -0.0312,0.0375 -0.0458,0.0125 z m -0.1791,0.01025 -0.246,0 0.0133,-0.0255 0.0197,-0.0265 0.0268,-0.02875 0.093,-0.08525 0.0362,-0.03699 0.0218,-0.02974 0.0152,-0.02925 0.0098,-0.029 0.0032,-0.029 -0.0097,-0.05925 -0.0293,-0.04376 -0.0465,-0.02699 -0.0635,-0.009 -0.06,0.0088 -0.048,0.02624 -0.0325,0.03999 -0.0155,0.05201 0.063,0.006 0.0093,-0.0345 0.0197,-0.0255 0.0283,-0.01649 0.0347,-0.0055 0.0363,0.006 0.0267,0.01799 0.0173,0.028 0.0057,0.03801 -0.0032,0.0295 -0.0098,0.0265 -0.0152,0.0235 -0.0198,0.02249 -0.102,0.09299 -0.0265,0.0275 -0.0255,0.0305 -0.0222,0.0345 -0.0188,0.0395 0,0.04401 0.314,0 z m 1.0929,-0.1659996 0.0045,-0.04948 0.0135,-0.0365 0.0223,-0.02326 0.0287,-0.0077 0.0255,0.0052 0.0165,0.01576 0.009,0.0295 0.003,0.04648 0,0.2390096 0.061,0 0,-0.2190096 0.0045,-0.04948 0.0135,-0.0365 0.0215,-0.02326 0.0285,-0.0077 0.026,0.0052 0.016,0.01576 0.009,0.0295 0.003,0.04648 0,0.2390096 0.061,0 0,-0.2509896 -0.0055,-0.06101 -0.0165,-0.041 -0.0285,-0.02324 -0.0415,-0.0077 -0.0308,0.0042 -0.0262,0.01276 -0.0213,0.0215 -0.0187,0.0325 -0.0113,-0.032 -0.0177,-0.022 -0.0247,-0.01276 -0.0323,-0.0042 -0.0295,0.004 -0.0245,0.01199 -0.0207,0.02126 -0.0193,0.03375 -0.003,-0.071 -0.058,0 0.002,0.082 0,0.3019896 0.061,0 z m -0.5722,0 0.0045,-0.04948 0.0135,-0.0365 0.0222,-0.02326 0.0288,-0.0077 0.0254,0.0052 0.0165,0.01576 0.009,0.0295 0.003,0.04648 0,0.2390096 0.061,0 0,-0.2190096 0.0045,-0.04948 0.0135,-0.0365 0.0215,-0.02326 0.0285,-0.0077 0.026,0.0052 0.016,0.01576 0.009,0.0295 0.003,0.04648 0,0.2390096 0.061,0 0,-0.2509896 -0.0055,-0.06101 -0.0165,-0.041 -0.0285,-0.02324 -0.0415,-0.0077 -0.0307,0.0042 -0.0263,0.01276 -0.0212,0.0215 -0.0188,0.0325 -0.0112,-0.032 -0.0178,-0.022 -0.0247,-0.01276 -0.0323,-0.0042 -0.0294,0.004 -0.0245,0.01199 -0.0208,0.02126 -0.0192,0.03375 -0.003,-0.071 -0.058,0 0.002,0.082 0,0.3019896 0.061,0 z m 15.7293408,0.6659995 -0.24601,0 0.01325,-0.0255 0.01974,-0.0265 0.02675,-0.02875 0.093,-0.08525 0.03626,-0.03699 0.02174,-0.02974 0.01526,-0.02925 0.00975,-0.029 0.00325,-0.029 -0.00975,-0.05925 -0.02925,-0.04376 -0.04649,-0.02699 -0.06349,-0.009 -0.06,0.0088 -0.04802,0.02624 -0.0325,0.03999 -0.01551,0.05201 0.06301,0.006 0.00924,-0.0345 0.01976,-0.0255 0.02825,-0.01649 0.03474,-0.0055 0.03626,0.006 0.02675,0.01799 0.01725,0.028 0.00576,0.03801 -0.00325,0.0295 -0.00975,0.0265 -0.01526,0.0235 -0.01975,0.02249 -0.102,0.09299 -0.02651,0.0275 -0.02549,0.0305 -0.02225,0.0345 -0.01875,0.0395 0,0.04401 0.31401,0 z m 0.29506,0.0425 0.05075,-0.0315 0.03149,-0.0515 0.0105,-0.06849 -0.00749,-0.04926 -0.02251,-0.03973 -0.03575,-0.02851 -0.04724,-0.0135 0,-0.002 0.043,-0.01324 0.03099,-0.02175 0.01951,-0.03 0.0065,-0.038 -0.00999,-0.04801 -0.03,-0.03599 -0.04726,-0.0225 -0.06375,-0.0075 -0.06,0.0085 -0.048,0.02549 -0.0325,0.03951 -0.0155,0.0525 0.06201,0.005 0.009,-0.03375 0.019,-0.02524 0.02875,-0.01576 0.03625,-0.0052 0.0385,0.0048 0.02749,0.01425 0.01726,0.0225 0.00575,0.02949 -0.00701,0.02951 -0.02102,0.02249 -0.03274,0.01351 -0.04425,0.0045 -0.03299,0 0,0.054 0.034,0 0.04924,0.0067 0.03575,0.02024 0.0225,0.0325 0.0075,0.0435 -0.0065,0.049 -0.01951,0.035 -0.03074,0.021 -0.04025,0.007 -0.0705,-0.0215 -0.03149,-0.0645 -0.06401,0.006 0.01675,0.057 0.03426,0.04101 0.05049,0.02474 0.0655,0.0083 z m 0.7978,-0.2085 0.0045,-0.04948 0.01351,-0.0365 0.02224,-0.02326 0.02875,-0.0077 0.0255,0.0052 0.01651,0.01576 0.009,0.0295 0.00299,0.04648 0,0.23901 0.06101,0 0,-0.21901 0.0045,-0.04948 0.0135,-0.0365 0.0215,-0.02326 0.02849,-0.0077 0.026,0.0052 0.01601,0.01576 0.009,0.0295 0.00299,0.04648 0,0.23901 0.06101,0 0,-0.25099 -0.0055,-0.06101 -0.01651,-0.041 -0.0285,-0.02324 -0.04149,-0.0077 -0.03076,0.0042 -0.02625,0.01276 -0.02125,0.0215 -0.01874,0.0325 -0.01126,-0.032 -0.01775,-0.022 -0.02475,-0.01276 -0.03224,-0.0042 -0.02951,0.004 -0.02449,0.01199 -0.02075,0.02126 -0.01926,0.03375 -0.00299,-0.071 -0.05801,0 0.00201,0.082 -10e-6,0.3019899 0.06099,0 z m -0.57225,0 0.0045,-0.04948 0.01352,-0.0365 0.02225,-0.02326 0.02875,-0.0077 0.02546,0.0052 0.01651,0.01576 0.00901,0.0295 0.00299,0.04648 -2e-5,0.23901 0.06101,0 1e-5,-0.21901 0.0045,-0.04948 0.01351,-0.0365 0.0215,-0.02326 0.02848,-0.0077 0.02601,0.0052 0.016,0.01576 0.009,0.0295 0.003,0.04648 -2e-5,0.23901 0.061,0 2e-5,-0.25099 -0.00549,-0.06101 -0.01651,-0.041 -0.02851,-0.02324 -0.04149,-0.0077 -0.03076,0.0042 -0.02624,0.01276 -0.02126,0.0215 -0.01874,0.0325 -0.01126,-0.032 -0.01774,-0.022 -0.02475,-0.01276 -0.03224,-0.0042 -0.02948,0.004 -0.02449,0.01199 -0.02076,0.02126 -0.01925,0.03375 -0.00299,-0.071 -0.05802,0 0.002,0.082 0,0.3019899 0.06099,0 z"
     id="path6"
     inkscape:connector-curvature="0"
     style="fill:#ffffff;stroke:#000000;stroke-width:0.05" />
</svg>
