<?xml version="1.0" encoding="UTF-8" standalone="no"?>
<svg
   xmlns:dc="http://purl.org/dc/elements/1.1/"
   xmlns:cc="http://creativecommons.org/ns#"
   xmlns:rdf="http://www.w3.org/1999/02/22-rdf-syntax-ns#"
   xmlns:svg="http://www.w3.org/2000/svg"
   xmlns="http://www.w3.org/2000/svg"
   xmlns:sodipodi="http://sodipodi.sourceforge.net/DTD/sodipodi-0.dtd"
   xmlns:inkscape="http://www.inkscape.org/namespaces/inkscape"
   width="210mm"
   height="297mm"
   viewBox="-7 -7 21 29.7"
   version="1.1"
   id="svg2"
   inkscape:version="0.91 r13725"
   sodipodi:docname="blueprint.svg"
   inkscape:export-filename="/home/romuald/Projects/TinyANN/Instructable/materials/blueprint.svg.png"
   inkscape:export-xdpi="90"
   inkscape:export-ydpi="90">
  <metadata
     id="metadata12">
    <rdf:RDF>
      <cc:Work
         rdf:about="">
        <dc:format>image/svg+xml</dc:format>
        <dc:type
           rdf:resource="http://purl.org/dc/dcmitype/StillImage" />
        <dc:title>OpenSCAD Model</dc:title>
      </cc:Work>
    </rdf:RDF>
  </metadata>
  <defs
     id="defs10">
    <marker
       inkscape:isstock="true"
       style="overflow:visible;"
       id="marker7499"
       refX="0.0"
       refY="0.0"
       orient="auto"
       inkscape:stockid="Arrow1Lend">
      <path
         transform="scale(0.8) rotate(180) translate(12.5,0)"
         style="fill-rule:evenodd;stroke:#000000;stroke-width:1pt;stroke-opacity:1;fill:#000000;fill-opacity:1"
         d="M 0.0,0.0 L 5.0,-5.0 L -12.5,0.0 L 5.0,5.0 L 0.0,0.0 z "
         id="path7501" />
    </marker>
    <marker
       inkscape:isstock="true"
       style="overflow:visible"
       id="marker7429"
       refX="0.0"
       refY="0.0"
       orient="auto"
       inkscape:stockid="Arrow1Lstart">
      <path
         transform="scale(0.8) translate(12.5,0)"
         style="fill-rule:evenodd;stroke:#000000;stroke-width:1pt;stroke-opacity:1;fill:#000000;fill-opacity:1"
         d="M 0.0,0.0 L 5.0,-5.0 L -12.5,0.0 L 5.0,5.0 L 0.0,0.0 z "
         id="path7431" />
    </marker>
    <marker
       inkscape:stockid="Arrow1Lend"
       orient="auto"
       refY="0.0"
       refX="0.0"
       id="marker7337"
       style="overflow:visible;"
       inkscape:isstock="true"
       inkscape:collect="always">
      <path
         id="path7339"
         d="M 0.0,0.0 L 5.0,-5.0 L -12.5,0.0 L 5.0,5.0 L 0.0,0.0 z "
         style="fill-rule:evenodd;stroke:#000000;stroke-width:1pt;stroke-opacity:1;fill:#000000;fill-opacity:1"
         transform="scale(0.8) rotate(180) translate(12.5,0)" />
    </marker>
    <marker
       inkscape:stockid="Arrow1Lstart"
       orient="auto"
       refY="0.0"
       refX="0.0"
       id="marker7279"
       style="overflow:visible"
       inkscape:isstock="true"
       inkscape:collect="always">
      <path
         id="path7281"
         d="M 0.0,0.0 L 5.0,-5.0 L -12.5,0.0 L 5.0,5.0 L 0.0,0.0 z "
         style="fill-rule:evenodd;stroke:#000000;stroke-width:1pt;stroke-opacity:1;fill:#000000;fill-opacity:1"
         transform="scale(0.8) translate(12.5,0)" />
    </marker>
    <marker
       inkscape:isstock="true"
       style="overflow:visible;"
       id="marker7167"
       refX="0.0"
       refY="0.0"
       orient="auto"
       inkscape:stockid="Arrow1Lend"
       inkscape:collect="always">
      <path
         transform="scale(0.8) rotate(180) translate(12.5,0)"
         style="fill-rule:evenodd;stroke:#000000;stroke-width:1pt;stroke-opacity:1;fill:#000000;fill-opacity:1"
         d="M 0.0,0.0 L 5.0,-5.0 L -12.5,0.0 L 5.0,5.0 L 0.0,0.0 z "
         id="path7169" />
    </marker>
    <marker
       inkscape:isstock="true"
       style="overflow:visible"
       id="marker7121"
       refX="0.0"
       refY="0.0"
       orient="auto"
       inkscape:stockid="Arrow1Lstart"
       inkscape:collect="always">
      <path
         transform="scale(0.8) translate(12.5,0)"
         style="fill-rule:evenodd;stroke:#000000;stroke-width:1pt;stroke-opacity:1;fill:#000000;fill-opacity:1"
         d="M 0.0,0.0 L 5.0,-5.0 L -12.5,0.0 L 5.0,5.0 L 0.0,0.0 z "
         id="path7123" />
    </marker>
    <marker
       inkscape:stockid="Arrow1Lend"
       orient="auto"
       refY="0.0"
       refX="0.0"
       id="Arrow1Lend"
       style="overflow:visible;"
       inkscape:isstock="true"
       inkscape:collect="always">
      <path
         id="path4152"
         d="M 0.0,0.0 L 5.0,-5.0 L -12.5,0.0 L 5.0,5.0 L 0.0,0.0 z "
         style="fill-rule:evenodd;stroke:#000000;stroke-width:1pt;stroke-opacity:1;fill:#000000;fill-opacity:1"
         transform="scale(0.8) rotate(180) translate(12.5,0)" />
    </marker>
    <marker
       inkscape:stockid="Arrow1Lstart"
       orient="auto"
       refY="0.0"
       refX="0.0"
       id="Arrow1Lstart"
       style="overflow:visible"
       inkscape:isstock="true"
       inkscape:collect="always">
      <path
         id="path4149"
         d="M 0.0,0.0 L 5.0,-5.0 L -12.5,0.0 L 5.0,5.0 L 0.0,0.0 z "
         style="fill-rule:evenodd;stroke:#000000;stroke-width:1pt;stroke-opacity:1;fill:#000000;fill-opacity:1"
         transform="scale(0.8) translate(12.5,0)" />
    </marker>
  </defs>
  <sodipodi:namedview
     pagecolor="#ffffff"
     bordercolor="#666666"
     borderopacity="1"
     objecttolerance="10"
     gridtolerance="10"
     guidetolerance="10"
     inkscape:pageopacity="0"
     inkscape:pageshadow="2"
     inkscape:window-width="1920"
     inkscape:window-height="1016"
     id="namedview8"
     showgrid="true"
     units="mm"
     inkscape:document-units="mm"
     inkscape:zoom="1.5698017"
     inkscape:cx="504.15127"
     inkscape:cy="740.89053"
     inkscape:window-x="0"
     inkscape:window-y="27"
     inkscape:window-maximized="1"
     inkscape:current-layer="layer1">
    <inkscape:grid
       type="xygrid"
       id="grid7731" />
  </sodipodi:namedview>
  <title
     id="title4">OpenSCAD Model</title>
  <path
     d="m 1.7568448,7.1744769 0.930751,-0.2234497 0.88434,-0.36631 0.81615,-0.50013 0.72786,-0.62166 0.62166,-0.72786 0.50013,-0.81615 0.36631,-0.88434 0.22345,-0.930751 0.0751,-0.9542391 -0.0751,-0.95423947 -0.22345,-0.930751 -0.36631,-0.88433983 -0.50013,-0.81615 -0.62166,-0.72786 -0.72786,-0.62166 -0.81615,-0.50013 -0.88434,-0.3663101 -0.930751,-0.22345 -0.95423904,-0.0751 -0.95423897,0.0751 -0.93075109,0.22345 -0.8843399,0.3663101 -0.81615,0.50013 -0.72786,0.62166 -0.62166,0.72786 -0.50013,0.81615 -0.36631,0.88433983 -0.22345,0.930751 -0.0751,0.95423947 0.0751,0.9542391 0.22345,0.930751 0.36631,0.88434 0.50013,0.81615 0.62166,0.72786 0.72786,0.62166 0.81615,0.50013 0.8843399,0.36631 0.93075109,0.2234497 0.95423897,0.0751 z m -0.97769184,-11.1767301 -0.0228881,-0.0055 -0.0217438,-0.009 -0.0200806,-0.01229 -0.0178987,-0.01529 -0.015274,-0.0179 -0.012298,-0.02007 -0.009018,-0.02176 -0.005494,-0.02287 -0.001846,-0.02347 0.001846,-0.02347 0.005494,-0.02288 0.009018,-0.02175 0.012298,-0.02006 0.015274,-0.0179 0.0178987,-0.01529 0.0200806,-0.0123 0.0217438,-0.009 0.0228881,-0.0055 0.0234528,-0.00186 0.0234528,0.0018 0.0228881,0.0055 0.0217438,0.009 0.0200806,0.0123 0.017899,0.01529 0.015274,0.0179 0.012298,0.02006 0.00902,0.02175 0.00549,0.02288 0.00185,0.02347 -0.00185,0.02347 -0.00549,0.02287 -0.00902,0.02176 -0.012298,0.02007 -0.015274,0.0179 -0.017899,0.01529 -0.0200806,0.01229 -0.0217438,0.009 -0.0228881,0.0055 -0.0234528,0.00191 z m -1.95000716,0.10001 -0.02288,-0.0055 -0.02176,-0.009 -0.02006,-0.01229 -0.0179,-0.01529 -0.01529,-0.0179 -0.0123,-0.02007 -0.009,-0.02174 -0.00549,-0.02289 -0.00185,-0.02347 0.00185,-0.02346 0.00549,-0.02288 0.009,-0.02176 0.0123,-0.02006 0.01529,-0.0179 0.0179,-0.01529 0.02006,-0.0123 0.02176,-0.009 0.02288,-0.0055 0.02346,-0.0019 0.02347,0.0019 0.02289,0.0055 0.02174,0.009 0.02007,0.0123 0.0179,0.01529 0.01529,0.0179 0.01229,0.02006 0.00902,0.02176 0.0055,0.02288 0.00184,0.02346 -0.00184,0.02347 -0.0055,0.02289 -0.00902,0.02174 -0.01229,0.02007 -0.01529,0.0179 -0.0179,0.01529 -0.02007,0.01229 -0.02174,0.009 -0.02289,0.0055 -0.02347,0.0018 z m 3.89999,0 -0.02289,-0.0055 -0.02174,-0.00902 -0.02007,-0.01229 -0.0179,-0.01529 -0.01529,-0.0179 -0.01229,-0.02007 -0.00902,-0.02174 -0.0055,-0.02289 -0.00184,-0.02347 0.00184,-0.02346 0.0055,-0.02288 0.00902,-0.02176 0.01229,-0.02006 0.01529,-0.0179 0.0179,-0.01529 0.02007,-0.0123 0.02174,-0.009 0.02289,-0.0055 0.02347,-0.0019 0.02346,0.0019 0.02288,0.0055 0.02176,0.009 0.02006,0.0123 0.0179,0.01529 0.01529,0.0179 0.0123,0.02006 0.009,0.02176 0.00549,0.02288 0.00185,0.02346 -0.00185,0.02347 -0.00549,0.02289 -0.009,0.02174 -0.0123,0.02007 -0.01529,0.0179 -0.0179,0.01529 -0.02006,0.01229 -0.02176,0.009 -0.02288,0.0055 -0.02346,0.00186 z m 1.84999,0.89999 -0.02287,-0.00549 -0.02176,-0.00901 -0.02007,-0.01229 -0.0179,-0.01529 -0.01529,-0.0179 -0.01229,-0.02007 -0.00901,-0.02176 -0.00549,-0.02287 -0.00185,-0.02347 0.00185,-0.02347 0.00549,-0.02288 0.00901,-0.02175 0.01229,-0.02006 0.01529,-0.0179 0.0179,-0.01529 0.02007,-0.0123 0.02176,-0.009 0.02287,-0.0055 0.02347,-0.0018 0.02347,0.0018 0.02288,0.0055 0.02175,0.009 0.02006,0.0123 0.0179,0.01529 0.01529,0.0179 0.0123,0.02006 0.00902,0.02175 0.00549,0.02288 0.00185,0.02347 -0.00185,0.02347 -0.00549,0.02287 -0.00902,0.02176 -0.0123,0.02007 -0.01529,0.0179 -0.0179,0.01529 -0.02006,0.01229 -0.02175,0.009 -0.02288,0.0055 -0.02347,0.0019 z m -7.59998,0 -0.02288,-0.0055 -0.02175,-0.009 -0.02006,-0.01229 -0.0179,-0.01529 -0.01529,-0.0179 -0.0123,-0.02007 -0.00902,-0.02176 -0.00549,-0.02287 -0.00185,-0.02347 0.00185,-0.02347 0.00549,-0.02288 0.00902,-0.02175 0.0123,-0.02006 0.01529,-0.0179 0.0179,-0.01529 0.02006,-0.0123 0.02175,-0.009 0.02288,-0.0055 0.02347,-0.0018 0.02347,0.0018 0.02287,0.0055 0.02176,0.009 0.02007,0.0123 0.0179,0.01529 0.01529,0.0179 0.01229,0.02006 0.00901,0.02175 0.00549,0.02288 0.00185,0.02347 -0.00185,0.02347 -0.00549,0.02287 -0.00901,0.02176 -0.01229,0.02007 -0.01529,0.0179 -0.0179,0.01529 -0.02007,0.01229 -0.02176,0.009 -0.02287,0.0055 -0.02347,0.0019 z m 1.80001,0.7 -0.02289,-0.0055 -0.02174,-0.009 -0.02009,-0.0123 -0.01789,-0.01529 -0.01528,-0.0179 -0.0123,-0.02006 -0.00901,-0.02174 -0.0055,-0.02289 -0.00184,-0.02347 0.00184,-0.02347 0.0055,-0.02289 0.00901,-0.02174 0.0123,-0.02007 0.01528,-0.01789 0.01789,-0.01529 0.02009,-0.0123 0.02174,-0.009 0.02289,-0.0055 0.02345,-0.00186 0.02347,0.0019 0.02289,0.0055 0.02174,0.009 0.02008,0.0123 0.0179,0.01529 0.01527,0.01789 0.0123,0.02007 0.00902,0.02174 0.00549,0.02289 0.00185,0.02347 -0.00185,0.02347 -0.00549,0.02289 -0.00902,0.02174 -0.0123,0.02006 -0.01527,0.0179 -0.0179,0.01529 -0.02008,0.0123 -0.02174,0.009 -0.02289,0.0055 -0.02347,0.0018 z m 3.99998,0 -0.02289,-0.0055 -0.02174,-0.009 -0.02008,-0.0123 -0.0179,-0.01529 -0.01527,-0.0179 -0.0123,-0.02006 -0.00902,-0.02174 -0.00549,-0.02289 -0.00185,-0.02347 0.00185,-0.02347 0.00549,-0.02289 0.00902,-0.02174 0.0123,-0.02007 0.01527,-0.01789 0.0179,-0.01529 0.02008,-0.0123 0.02174,-0.009 0.02289,-0.0055 0.02347,-0.00186 0.02345,0.0019 0.02289,0.0055 0.02174,0.009 0.02009,0.0123 0.01789,0.01529 0.01528,0.01789 0.0123,0.02007 0.00901,0.02174 0.0055,0.02289 0.00184,0.02347 -0.00184,0.02347 -0.0055,0.02289 -0.00901,0.02174 -0.0123,0.02006 -0.01528,0.0179 -0.01789,0.01529 -0.02009,0.0123 -0.02174,0.009 -0.02289,0.0055 -0.02345,0.0018 z m 2.65,0.6 -0.02289,-0.0055 -0.02175,-0.009 -0.02006,-0.01231 -0.0179,-0.01527 -0.01529,-0.0179 -0.0123,-0.02008 -0.009,-0.02174 -0.00549,-0.02289 -0.00185,-0.02347 0.00185,-0.02345 0.00549,-0.02289 0.009,-0.02174 0.0123,-0.02009 0.01529,-0.01789 0.0179,-0.01528 0.02006,-0.0123 0.02175,-0.009 0.02289,-0.0055 0.02346,-0.0018 0.02347,0.0018 0.02289,0.0055 0.02174,0.009 0.02007,0.0123 0.0179,0.01528 0.01529,0.01789 0.0123,0.02009 0.009,0.02174 0.00549,0.02289 0.00185,0.02345 -0.00185,0.02347 -0.00549,0.02289 -0.009,0.02174 -0.0123,0.02008 -0.01529,0.0179 -0.0179,0.01527 -0.02007,0.0123 -0.02174,0.009 -0.02289,0.0055 -0.02347,0.0018 z m -9.29999,0 -0.02289,-0.0055 -0.02174,-0.009 -0.02007,-0.0123 -0.0179,-0.01527 -0.01529,-0.0179 -0.0123,-0.02008 -0.009,-0.02174 -0.00549,-0.02289 -0.00185,-0.02347 0.00185,-0.02345 0.00549,-0.02289 0.009,-0.02174 0.0123,-0.02009 0.01529,-0.01789 0.0179,-0.01528 0.02007,-0.0123 0.02174,-0.009 0.02289,-0.0055 0.02347,-0.0018 0.02346,0.0018 0.02289,0.0055 0.02175,0.009 0.02006,0.0123 0.0179,0.01528 0.01529,0.01789 0.0123,0.02009 0.009,0.02174 0.00549,0.02289 0.00185,0.02344 -0.00185,0.02347 -0.00549,0.02289 -0.009,0.02174 -0.0123,0.02008 -0.01529,0.0179 -0.0179,0.01527 -0.02006,0.0123 -0.02175,0.009 -0.02289,0.0055 -0.02346,0.0018 z m 7.77345,5.1518304 0,-4.5999804 2.3,0 0,4.5999804 z m -8.49998,0 0,-4.5999804 2.3,0 0,4.5999804 z m 2.88435,-3.15121757 -0.01526,-0.0037 -0.01449,-0.006 -0.01339,-0.0082 -0.01193,-0.01019 -0.01018,-0.01193 -0.00821,-0.01337 -0.00599,-0.01451 -0.00366,-0.01524 -0.00124,-0.01566 0.00124,-0.01564 0.00366,-0.01526 0.00599,-0.0145 0.00821,-0.01338 0.01018,-0.01194 0.01193,-0.01019 0.01339,-0.0082 0.01449,-0.006 0.01526,-0.0037 0.01564,-0.0012 0.01566,0.0012 0.01525,0.0037 0.0145,0.006 0.01338,0.0082 0.01193,0.01019 0.01018,0.01194 0.00821,0.01338 0.006,0.0145 0.00366,0.01526 0.00124,0.01564 -0.00124,0.01566 -0.00366,0.01524 -0.006,0.01451 -0.00821,0.01337 -0.01018,0.01193 -0.01193,0.01019 -0.01338,0.0082 -0.0145,0.006 -0.01525,0.0037 -0.01566,0.0012 z m 4.99998,0 -0.01525,-0.0037 -0.0145,-0.006 -0.01338,-0.0082 -0.01193,-0.01019 -0.01018,-0.01193 -0.00821,-0.01337 -0.006,-0.01451 -0.00366,-0.01524 -0.00124,-0.01566 0.00124,-0.01564 0.00366,-0.01526 0.006,-0.0145 0.00821,-0.01338 0.01018,-0.01194 0.01193,-0.01019 0.01338,-0.0082 0.0145,-0.006 0.01525,-0.0037 0.01566,-0.0012 0.01564,0.0012 0.01526,0.0037 0.01449,0.006 0.01339,0.0082 0.01193,0.01019 0.01018,0.01194 0.00821,0.01338 0.00599,0.0145 0.00366,0.01526 0.00124,0.01564 -0.00124,0.01566 -0.00366,0.01524 -0.00599,0.01451 -0.00821,0.01337 -0.01018,0.01193 -0.01193,0.01019 -0.01339,0.0082 -0.01449,0.006 -0.01526,0.0037 -0.01564,0.0012 z m -2.60166504,1.59198057 -0.114425,-0.02747 -0.108735,-0.04504 -0.100341,-0.06149 -0.089493,-0.07643 -0.076431,-0.0895 -0.061493,-0.100341 -0.045044,-0.108735 -0.027466,-0.114425 -0.009247,-0.1173251 0.009247,-0.1173251 0.027466,-0.11442497 0.045044,-0.108735 0.061493,-0.100341 0.076431,-0.08949 0.089493,-0.07643 0.100341,-0.06149 0.108735,-0.04504 0.114425,-0.02747 0.117325,-0.00925 0.11732496,0.0092 0.11442508,0.02747 0.108735,0.04504 0.100341,0.06149 0.089493,0.07643 0.076431,0.08949 0.061493,0.100341 0.045044,0.108735 0.027466,0.11442497 0.00925,0.1173791 -0.00925,0.1173251 -0.027466,0.114425 -0.045044,0.108735 -0.061493,0.100341 -0.076431,0.08949 -0.089493,0.07643 -0.100341,0.06149 -0.108735,0.04504 -0.11442508,0.02747 -0.11732496,0.0092 z m -2.39831496,0.308017 -0.01526,-0.0037 -0.01449,-0.006 -0.01339,-0.0082 -0.01193,-0.01019 -0.01018,-0.01194 -0.00821,-0.01338 -0.00599,-0.0145 -0.00366,-0.01526 -0.00124,-0.01564 0.00124,-0.01566 0.00366,-0.01524 0.00599,-0.01451 0.00821,-0.01337 0.01018,-0.01193 0.01193,-0.01019 0.01339,-0.0082 0.01449,-0.006 0.01526,-0.0037 0.01564,-0.0012 0.01566,0.0012 0.01525,0.0037 0.0145,0.006 0.01338,0.0082 0.01193,0.01019 0.01018,0.01193 0.00821,0.01337 0.006,0.01451 0.00366,0.01524 0.00124,0.01566 -0.00124,0.01564 -0.00366,0.01526 -0.006,0.0145 -0.00821,0.01338 -0.01018,0.01194 -0.01193,0.01019 -0.01338,0.0082 -0.0145,0.006 -0.01525,0.0037 -0.01566,0.0012 z m 4.99998,0 -0.01525,-0.0037 -0.0145,-0.006 -0.01338,-0.0082 -0.01193,-0.01019 -0.01018,-0.01194 -0.00821,-0.01338 -0.006,-0.0145 -0.00366,-0.01526 -0.00124,-0.01564 0.00124,-0.01566 0.00366,-0.01524 0.006,-0.01451 0.00821,-0.01337 0.01018,-0.01193 0.01193,-0.01019 0.01338,-0.0082 0.0145,-0.006 0.01525,-0.0037 0.01566,-0.0012 0.01564,0.0012 0.01526,0.0037 0.01449,0.006 0.01339,0.0082 0.01193,0.01019 0.01018,0.01193 0.00821,0.01337 0.00599,0.01451 0.00366,0.01524 0.00124,0.01566 -0.00124,0.01564 -0.00366,0.01526 -0.00599,0.0145 -0.00821,0.01338 -0.01018,0.01194 -0.01193,0.01019 -0.01339,0.0082 -0.01449,0.006 -0.01526,0.0037 -0.01564,0.0012 z m -1.00781,0.89938 -0.02289,-0.0055 -0.02174,-0.009 -0.02008,-0.0123 -0.0179,-0.01529 -0.01527,-0.0179 -0.0123,-0.02006 -0.00902,-0.02175 -0.00549,-0.02288 -0.00185,-0.02347 0.00185,-0.02347 0.00549,-0.02287 0.00902,-0.02176 0.0123,-0.02007 0.01527,-0.0179 0.0179,-0.01529 0.02008,-0.01229 0.02174,-0.009 0.02289,-0.0055 0.02347,-0.0019 0.02345,0.0019 0.02289,0.0055 0.02174,0.009 0.02009,0.01229 0.01789,0.01529 0.01528,0.0179 0.0123,0.02007 0.00901,0.02176 0.0055,0.02287 0.00184,0.02347 -0.00184,0.02347 -0.0055,0.02288 -0.00901,0.02175 -0.0123,0.02006 -0.01528,0.0179 -0.01789,0.01529 -0.02009,0.0123 -0.02174,0.009 -0.02289,0.0055 -0.02345,0.0019 z m -2.99998011,0 -0.02289,-0.0055 -0.02174,-0.009 -0.02009,-0.0123 -0.01789,-0.01529 -0.01528,-0.0179 -0.0123,-0.02006 -0.00901,-0.02175 -0.0055,-0.02288 -0.00184,-0.02347 0.00184,-0.02347 0.0055,-0.02287 0.00901,-0.02176 0.0123,-0.02007 0.01528,-0.0179 0.01789,-0.01529 0.02009,-0.01229 0.02174,-0.009 0.02289,-0.0055 0.02345,-0.0019 0.02347,0.0019 0.02289,0.0055 0.02174,0.009 0.02008,0.01229 0.0179,0.01529 0.01527,0.0179 0.0123,0.02007 0.00902,0.02176 0.00549,0.02287 0.00185,0.02347 -0.00185,0.02347 -0.00549,0.02288 -0.00902,0.02175 -0.0123,0.02006 -0.01527,0.0179 -0.0179,0.01529 -0.02008,0.0123 -0.02174,0.009 -0.02289,0.0055 -0.02347,0.0019 z m -2.30000989,2.5 -0.02288,-0.0055 -0.02175,-0.009 -0.02006,-0.0123 -0.0179,-0.01529 -0.01529,-0.0179 -0.0123,-0.02006 -0.00902,-0.02175 -0.00549,-0.02288 -0.00185,-0.02347 0.00185,-0.02347 0.00549,-0.02287 0.00902,-0.02176 0.0123,-0.02007 0.01529,-0.0179 0.0179,-0.01529 0.02006,-0.01229 0.02175,-0.009 0.02288,-0.0055 0.02347,-0.0019 0.02347,0.0019 0.02287,0.0055 0.02176,0.009 0.02007,0.01229 0.0179,0.01529 0.01529,0.0179 0.01229,0.02007 0.00901,0.02176 0.00549,0.02287 0.00185,0.02347 -0.00185,0.02347 -0.00549,0.02288 -0.00901,0.02175 -0.01229,0.02006 -0.01529,0.0179 -0.0179,0.01529 -0.02007,0.0123 -0.02176,0.009 -0.02287,0.0055 -0.02347,0.0018 z m 7.59998,0 -0.02287,-0.0055 -0.02176,-0.009 -0.02007,-0.0123 -0.0179,-0.01529 -0.01529,-0.0179 -0.01229,-0.02006 -0.00901,-0.02175 -0.00549,-0.02288 -0.00185,-0.02347 0.00185,-0.02347 0.00549,-0.02287 0.00901,-0.02176 0.01229,-0.02007 0.01529,-0.0179 0.0179,-0.01529 0.02007,-0.01229 0.02176,-0.009 0.02287,-0.0055 0.02347,-0.0019 0.02347,0.0019 0.02288,0.0055 0.02175,0.009 0.02006,0.01229 0.0179,0.01529 0.01529,0.0179 0.0123,0.02007 0.00902,0.02176 0.00549,0.02287 0.00185,0.02347 -0.00185,0.02347 -0.00549,0.02288 -0.00902,0.02175 -0.0123,0.02006 -0.01529,0.0179 -0.0179,0.01529 -0.02006,0.0123 -0.02175,0.009 -0.02288,0.0055 -0.02347,0.0018 z m -5.74998,0.89999 -0.02288,-0.0055 -0.02176,-0.009 -0.02006,-0.0123 -0.0179,-0.01529 -0.01529,-0.0179 -0.0123,-0.02006 -0.009,-0.02176 -0.00549,-0.02288 -0.00185,-0.02346 0.00185,-0.02347 0.00549,-0.02289 0.009,-0.02174 0.0123,-0.02007 0.01529,-0.0179 0.0179,-0.01529 0.02006,-0.01229 0.02176,-0.009 0.02288,-0.0055 0.02346,-0.0018 0.02347,0.0018 0.02289,0.0055 0.02174,0.009 0.02007,0.01229 0.0179,0.01529 0.01529,0.0179 0.01229,0.02007 0.00902,0.02174 0.0055,0.02289 0.00184,0.02347 -0.00184,0.02346 -0.0055,0.02288 -0.00902,0.02176 -0.01229,0.02006 -0.01529,0.0179 -0.0179,0.01529 -0.02007,0.0123 -0.02174,0.009 -0.02289,0.0055 -0.02347,0.0019 z m 3.89999,0 -0.02289,-0.0055 -0.02174,-0.009 -0.02007,-0.0123 -0.0179,-0.01529 -0.01529,-0.0179 -0.01229,-0.02006 -0.00902,-0.02176 -0.0055,-0.02288 -0.00184,-0.02346 0.00184,-0.02347 0.0055,-0.02289 0.00902,-0.02174 0.01229,-0.02007 0.01529,-0.0179 0.0179,-0.01529 0.02007,-0.01229 0.02174,-0.009 0.02289,-0.0055 0.02347,-0.0018 0.02346,0.0018 0.02288,0.0055 0.02176,0.009 0.02006,0.01229 0.0179,0.01529 0.01529,0.0179 0.0123,0.02007 0.009,0.02174 0.00549,0.02289 0.00185,0.02347 -0.00185,0.02346 -0.00549,0.02288 -0.009,0.02176 -0.0123,0.02006 -0.01529,0.0179 -0.0179,0.01529 -0.02006,0.0123 -0.02176,0.009 -0.02288,0.0055 -0.02346,0.0019 z"
     id="path6"
     inkscape:connector-curvature="0"
     style="fill:#d3d3d3;stroke:#000000;stroke-width:0.01" />
  <g
     inkscape:groupmode="layer"
     id="layer1"
     inkscape:label="Dimensions">
    <text
       xml:space="preserve"
       style="font-style:normal;font-weight:normal;font-size:0.63500005px;line-height:125%;font-family:sans-serif;letter-spacing:0px;word-spacing:0px;fill:#000000;fill-opacity:1;stroke:none;stroke-width:1px;stroke-linecap:butt;stroke-linejoin:miter;stroke-opacity:1"
       x="9.8096352"
       y="1.2259958"
       id="text3341"
       sodipodi:linespacing="125%"><tspan
         sodipodi:role="line"
         id="tspan3343"
         x="9.8096352"
         y="1.2259958"
         style="font-size:0.35277778px">122mm</tspan></text>
    <path
       style="fill:none;fill-rule:evenodd;stroke:#000000;stroke-width:0.02737686px;stroke-linecap:butt;stroke-linejoin:miter;stroke-opacity:1"
       d="m 0.95393457,-4.9659522 8.99999993,0"
       id="path7073"
       inkscape:connector-curvature="0" />
    <path
       style="fill:none;fill-rule:evenodd;stroke:#000000;stroke-width:0.02663614px;stroke-linecap:butt;stroke-linejoin:miter;stroke-opacity:1"
       d="m 0.93595636,7.2747011 8.99999994,0"
       id="path7075"
       inkscape:connector-curvature="0" />
    <path
       style="fill:none;fill-rule:evenodd;stroke:#000000;stroke-width:0.0282;stroke-linecap:butt;stroke-linejoin:miter;stroke-miterlimit:4;stroke-dasharray:none;stroke-opacity:1;marker-start:url(#Arrow1Lstart);marker-end:url(#Arrow1Lend)"
       d="m 9.6406999,-4.9407685 0,12.2000012"
       id="path7077"
       inkscape:connector-curvature="0" />
    <path
       style="fill:none;fill-rule:evenodd;stroke:#000000;stroke-width:0.02891214px;stroke-linecap:butt;stroke-linejoin:miter;stroke-opacity:1"
       d="m 6.1960037,-1.1570809 2,0"
       id="path7109"
       inkscape:connector-curvature="0" />
    <path
       style="fill:none;fill-rule:evenodd;stroke:#000000;stroke-width:0.02740262px;stroke-linecap:butt;stroke-linejoin:miter;stroke-opacity:1"
       d="m 6.2139819,3.46332 2,0"
       id="path7111"
       inkscape:connector-curvature="0" />
    <path
       style="fill:none;fill-rule:evenodd;stroke:#000000;stroke-width:0.02822223px;stroke-linecap:butt;stroke-linejoin:miter;stroke-opacity:1;marker-start:url(#marker7121);marker-end:url(#marker7167)"
       d="m 7.9039334,-1.1240009 0,4.5664661"
       id="path7113"
       inkscape:connector-curvature="0" />
    <text
       xml:space="preserve"
       style="font-style:normal;font-weight:normal;font-size:0.63500005px;line-height:125%;font-family:sans-serif;letter-spacing:0px;word-spacing:0px;fill:#000000;fill-opacity:1;stroke:none;stroke-width:1px;stroke-linecap:butt;stroke-linejoin:miter;stroke-opacity:1"
       x="8.1090908"
       y="1.223498"
       id="text3341-5"
       sodipodi:linespacing="125%"><tspan
         sodipodi:role="line"
         id="tspan3343-3"
         x="8.1090908"
         y="1.223498"
         style="font-size:0.35277778px">46mm</tspan></text>
    <path
       style="fill:none;fill-rule:evenodd;stroke:#000000;stroke-width:0.02822804px;stroke-linecap:butt;stroke-linejoin:miter;stroke-opacity:1"
       d="m 3.8768152,3.4432846 0,5.0000005"
       id="path7267"
       inkscape:connector-curvature="0" />
    <path
       style="fill:none;fill-rule:evenodd;stroke:#000000;stroke-width:0.02833013px;stroke-linecap:butt;stroke-linejoin:miter;stroke-opacity:1"
       d="m 6.2319601,3.4432846 0,5.0000005"
       id="path7269"
       inkscape:connector-curvature="0" />
    <path
       style="fill:none;fill-rule:evenodd;stroke:#000000;stroke-width:0.02822223px;stroke-linecap:butt;stroke-linejoin:miter;stroke-opacity:1;marker-start:url(#marker7279);marker-end:url(#marker7337)"
       d="m 3.8947933,8.1556336 2.3012104,0"
       id="path7271"
       inkscape:connector-curvature="0" />
    <text
       xml:space="preserve"
       style="font-style:normal;font-weight:normal;font-size:0.63500005px;line-height:125%;font-family:sans-serif;letter-spacing:0px;word-spacing:0px;fill:#000000;fill-opacity:1;stroke:none;stroke-width:1px;stroke-linecap:butt;stroke-linejoin:miter;stroke-opacity:1"
       x="4.4654403"
       y="8.5248508"
       id="text3341-5-3"
       sodipodi:linespacing="125%"><tspan
         sodipodi:role="line"
         id="tspan3343-3-2"
         x="4.4654403"
         y="8.5248508"
         style="font-size:0.35277778px">23mm</tspan></text>
    <path
       style="fill:none;fill-rule:evenodd;stroke:#000000;stroke-width:0.02798463px;stroke-linecap:butt;stroke-linejoin:miter;stroke-opacity:1"
       d="m 1.5756047,1.0837204 0,7.0000007"
       id="path7415"
       inkscape:connector-curvature="0" />
    <path
       style="fill:none;fill-rule:evenodd;stroke:#000000;stroke-width:0.02798462px;stroke-linecap:butt;stroke-linejoin:miter;stroke-opacity:1"
       d="m 0.01150051,1.0837204 0,7.0000007"
       id="path7417"
       inkscape:connector-curvature="0" />
    <path
       style="fill:none;fill-rule:evenodd;stroke:#000000;stroke-width:0.02822223px;stroke-linecap:butt;stroke-linejoin:miter;stroke-opacity:1;marker-start:url(#marker7429);marker-end:url(#marker7499)"
       d="m 1.5396483,7.80821 -1.5101694,0"
       id="path7421"
       inkscape:connector-curvature="0" />
    <text
       xml:space="preserve"
       style="font-style:normal;font-weight:normal;font-size:0.63500005px;line-height:125%;font-family:sans-serif;letter-spacing:0px;word-spacing:0px;fill:#000000;fill-opacity:1;stroke:none;stroke-width:1px;stroke-linecap:butt;stroke-linejoin:miter;stroke-opacity:1"
       x="0.21827665"
       y="8.2313433"
       id="text3341-5-3-7"
       sodipodi:linespacing="125%"><tspan
         sodipodi:role="line"
         id="tspan3343-3-2-9"
         x="0.21827665"
         y="8.2313433"
         style="font-size:0.35277778px">15mm</tspan></text>
  </g>
</svg>
