<?xml version='1.0' encoding='UTF-8' standalone='no'?>
<!-- Created with Fritzing (http://www.fritzing.org/) -->
<svg xmlns="http://www.w3.org/2000/svg" x="0in" baseProfile="tiny"  y="0in" width="0.787402in" height="1.1811in" viewBox="0 0 56.6929 85.0394" xmlns:svg="http://www.w3.org/2000/svg" version="1.2">
 <g partID="57360">
  <g  id="board">
   <rect stroke="black" stroke-width="0.5" x="0.288" fill="none"  width="56.1169" y="0.288" height="84.4634" id="boardoutline" fill-opacity="0.5"/>
  </g>
 </g>
 <g partID="855533770">
  <g transform="translate(2.88,2.88)">
   <g  id="groundplane">
    <polygon stroke="none" stroke-width="0" points="0,0,0,7.92,42.624,7.92,42.624,8.064,43.2,8.064,43.2,8.208,43.632,8.208,43.632,8.352,43.92,8.352,43.92,8.496,44.208,8.496,44.208,8.64,44.496,8.64,44.496,8.784,44.64,8.784,44.64,8.928,44.784,8.928,44.784,9.072,45.072,9.072,45.072,9.216,45.216,9.216,45.216,9.36,45.36,9.36,45.36,9.504,45.504,9.504,45.504,9.648,45.648,9.648,45.648,9.936,45.792,9.936,45.792,10.08,45.936,10.08,45.936,10.368,46.08,10.368,46.08,10.512,46.224,10.512,46.224,10.8,46.368,10.8,46.368,11.088,46.512,11.088,46.512,11.52,46.656,11.52,46.656,12.096,46.8,12.096,46.8,14.112,46.656,14.112,46.656,14.688,46.512,14.688,46.512,15.12,46.368,15.12,46.368,15.408,46.224,15.408,46.224,15.696,46.08,15.696,46.08,15.984,45.936,15.984,45.936,16.128,45.792,16.128,45.792,16.416,45.648,16.416,45.648,16.56,45.504,16.56,45.504,16.704,45.36,16.704,45.36,16.848,45.216,16.848,45.216,16.992,45.072,16.992,45.072,17.136,44.928,17.136,44.928,17.28,44.64,17.28,44.64,17.424,44.496,17.424,44.496,17.568,44.208,17.568,44.208,17.712,43.92,17.712,43.92,17.856,43.632,17.856,43.632,18,43.344,18,43.344,18.144,42.768,18.144,42.768,18.288,41.904,18.288,41.904,18.432,50.832,18.432,50.832,0" fill="black" />
    <polygon stroke="none" stroke-width="0" points="0,7.92,0,18.432,12.96,18.432,12.96,18.288,11.952,18.288,11.952,18.144,11.52,18.144,11.52,18,11.088,18,11.088,17.856,10.8,17.856,10.8,17.712,10.512,17.712,10.512,17.568,10.224,17.568,10.224,17.424,10.08,17.424,10.08,17.28,9.936,17.28,9.936,17.136,9.792,17.136,9.792,16.992,9.504,16.992,9.504,16.848,9.36,16.848,9.36,16.704,9.216,16.704,9.216,16.416,9.072,16.416,9.072,16.272,8.928,16.272,8.928,16.128,8.784,16.128,8.784,15.84,8.64,15.84,8.64,15.552,8.496,15.552,8.496,15.264,8.352,15.264,8.352,14.976,8.208,14.976,8.208,14.544,8.064,14.544,8.064,13.824,7.92,13.824,7.92,12.384,8.064,12.384,8.064,11.664,8.208,11.664,8.208,11.232,8.352,11.232,8.352,10.944,8.496,10.944,8.496,10.656,8.64,10.656,8.64,10.368,8.784,10.368,8.784,10.224,8.928,10.224,8.928,9.936,9.072,9.936,9.072,9.792,9.216,9.792,9.216,9.648,9.36,9.648,9.36,9.504,9.504,9.504,9.504,9.36,9.648,9.36,9.648,9.216,9.792,9.216,9.792,9.072,9.936,9.072,9.936,8.928,10.08,8.928,10.08,8.784,10.368,8.784,10.368,8.64,10.656,8.64,10.656,8.496,10.8,8.496,10.8,8.352,11.232,8.352,11.232,8.208,11.52,8.208,11.52,8.064,12.096,8.064,12.096,7.92" fill="black" />
    <polygon stroke="none" stroke-width="0" points="14.256,7.92,14.256,8.064,14.832,8.064,14.832,8.208,15.264,8.208,15.264,8.352,15.552,8.352,15.552,8.496,15.84,8.496,15.84,8.64,15.984,8.64,15.984,8.784,16.272,8.784,16.272,8.928,16.416,8.928,16.416,9.072,16.56,9.072,16.56,9.216,16.704,9.216,16.704,9.36,16.992,9.36,16.992,9.648,17.136,9.648,17.136,9.792,17.28,9.792,17.28,9.936,17.424,9.936,17.424,10.08,17.568,10.08,17.568,10.368,17.712,10.368,17.712,10.656,17.856,10.656,17.856,10.944,18,10.944,18,11.232,18.144,11.232,18.144,11.664,18.288,11.664,18.288,12.24,18.432,12.24,18.432,13.968,18.288,13.968,18.288,14.544,18.144,14.544,18.144,14.976,18,14.976,18,15.408,17.856,15.408,17.856,15.696,17.712,15.696,17.712,15.84,17.568,15.84,17.568,16.128,17.424,16.128,17.424,16.272,17.28,16.272,17.28,16.56,17.136,16.56,17.136,16.704,16.992,16.704,16.992,16.848,16.848,16.848,16.848,16.992,16.704,16.992,16.704,17.136,16.416,17.136,16.416,17.28,16.272,17.28,16.272,17.424,16.128,17.424,16.128,17.568,15.84,17.568,15.84,17.712,15.552,17.712,15.552,17.856,15.264,17.856,15.264,18,14.832,18,14.832,18.144,14.4,18.144,14.4,18.288,13.536,18.288,13.536,18.432,41.328,18.432,41.328,18.288,40.32,18.288,40.32,18.144,39.888,18.144,39.888,18,39.456,18,39.456,17.856,39.168,17.856,39.168,17.712,38.88,17.712,38.88,17.568,38.736,17.568,38.736,17.424,38.448,17.424,38.448,17.28,38.304,17.28,38.304,17.136,38.16,17.136,38.16,16.992,38.016,16.992,38.016,16.848,37.872,16.848,37.872,16.704,37.728,16.704,37.728,16.56,37.584,16.56,37.584,16.416,37.44,16.416,37.44,16.272,37.296,16.272,37.296,15.984,37.152,15.984,37.152,15.84,37.008,15.84,37.008,15.552,36.864,15.552,36.864,15.264,36.72,15.264,36.72,14.832,36.576,14.832,36.576,14.4,36.432,14.4,36.432,13.68,36.288,13.68,36.288,12.672,36.432,12.672,36.432,11.808,36.576,11.808,36.576,11.376,36.72,11.376,36.72,10.944,36.864,10.944,36.864,10.656,37.008,10.656,37.008,10.512,37.152,10.512,37.152,10.224,37.296,10.224,37.296,9.936,37.44,9.936,37.44,9.792,37.584,9.792,37.584,9.648,37.728,9.648,37.728,9.504,37.872,9.504,37.872,9.36,38.016,9.36,38.016,9.216,38.16,9.216,38.16,9.072,38.304,9.072,38.304,8.928,38.592,8.928,38.592,8.784,38.736,8.784,38.736,8.64,39.024,8.64,39.024,8.496,39.312,8.496,39.312,8.352,39.6,8.352,39.6,8.208,40.032,8.208,40.032,8.064,40.464,8.064,40.464,7.92" fill="black" />
    <polygon stroke="none" stroke-width="0" points="0,18.432,0,18.576,50.832,18.576,50.832,18.432" fill="black" />
    <polygon stroke="none" stroke-width="0" points="0,18.432,0,18.576,50.832,18.576,50.832,18.432" fill="black" />
    <polygon stroke="none" stroke-width="0" points="0,18.432,0,18.576,50.832,18.576,50.832,18.432" fill="black" />
    <polygon stroke="none" stroke-width="0" points="0,18.576,0,18.864,33.696,18.864,33.696,19.008,34.272,19.008,34.272,19.152,34.704,19.152,34.704,19.296,34.848,19.296,34.848,19.44,35.136,19.44,35.136,19.584,35.28,19.584,35.28,19.728,35.568,19.728,35.568,19.872,35.712,19.872,35.712,20.016,35.856,20.016,35.856,20.304,36,20.304,36,20.448,36.144,20.448,36.144,20.736,36.288,20.736,36.288,21.024,36.432,21.024,36.432,21.312,36.576,21.312,36.576,22.032,36.72,22.032,36.72,22.896,36.576,22.896,36.576,23.472,36.432,23.472,36.432,23.904,36.288,23.904,36.288,24.192,36.144,24.192,36.144,24.336,36,24.336,36,24.624,35.856,24.624,35.856,24.768,35.712,24.768,35.712,24.912,35.568,24.912,35.568,25.056,35.424,25.056,35.424,25.2,35.136,25.2,35.136,25.344,34.992,25.344,34.992,25.488,34.704,25.488,34.704,25.632,34.416,25.632,34.416,25.776,33.984,25.776,33.984,25.92,31.68,25.92,31.68,27.072,31.968,27.072,31.968,27.216,32.112,27.216,32.112,27.504,32.256,27.504,32.256,27.648,32.4,27.648,32.4,27.792,32.544,27.792,32.544,28.08,32.688,28.08,32.688,28.512,32.832,28.512,32.832,28.944,32.976,28.944,32.976,30.24,32.832,30.24,32.832,30.816,32.688,30.816,32.688,31.104,32.544,31.104,32.544,31.392,32.4,31.392,32.4,31.536,32.256,31.536,32.256,31.824,32.112,31.824,32.112,31.968,31.968,31.968,31.968,32.112,31.824,32.112,31.824,32.256,31.68,32.256,31.68,32.4,31.392,32.4,31.392,32.544,31.104,32.544,31.104,32.688,30.96,32.688,30.96,32.832,30.384,32.832,30.384,32.976,50.832,32.976,50.832,18.576" fill="black" />
    <polygon stroke="none" stroke-width="0" points="0,18.864,0,68.112,21.6,68.112,21.6,67.968,21.312,67.968,21.312,67.824,21.024,67.824,21.024,67.68,20.736,67.68,20.736,67.536,20.592,67.536,20.592,67.392,20.448,67.392,20.448,67.248,11.52,67.248,11.52,67.104,10.944,67.104,10.944,66.96,10.656,66.96,10.656,66.816,10.512,66.816,10.512,66.672,10.368,66.672,10.368,66.528,10.224,66.528,10.224,66.24,10.08,66.24,10.08,65.664,9.936,65.664,9.936,22.32,10.08,22.32,10.08,21.744,10.224,21.744,10.224,21.456,10.368,21.456,10.368,21.312,10.512,21.312,10.512,21.168,10.656,21.168,10.656,21.024,10.944,21.024,10.944,20.88,15.696,20.88,15.696,20.592,15.84,20.592,15.84,20.304,15.984,20.304,15.984,20.16,16.128,20.16,16.128,20.016,16.272,20.016,16.272,19.872,16.416,19.872,16.416,19.728,16.56,19.728,16.56,19.584,16.704,19.584,16.704,19.44,16.992,19.44,16.992,19.296,17.28,19.296,17.28,19.152,17.712,19.152,17.712,19.008,18.288,19.008,18.288,18.864" fill="black" />
    <polygon stroke="none" stroke-width="0" points="19.296,18.864,19.296,19.008,19.872,19.008,19.872,19.152,20.304,19.152,20.304,19.296,20.448,19.296,20.448,19.44,20.736,19.44,20.736,19.584,20.88,19.584,20.88,19.728,21.168,19.728,21.168,19.872,21.312,19.872,21.312,20.016,21.456,20.016,21.456,20.304,21.6,20.304,21.6,20.448,23.04,20.448,23.04,20.304,23.184,20.304,23.184,20.16,23.328,20.16,23.328,20.016,23.472,20.016,23.472,19.872,23.616,19.872,23.616,19.728,23.76,19.728,23.76,19.584,23.904,19.584,23.904,19.44,24.192,19.44,24.192,19.296,24.48,19.296,24.48,19.152,24.912,19.152,24.912,19.008,25.488,19.008,25.488,18.864" fill="black" />
    <polygon stroke="none" stroke-width="0" points="26.496,18.864,26.496,19.008,27.072,19.008,27.072,19.152,27.504,19.152,27.504,19.296,27.648,19.296,27.648,19.44,27.936,19.44,27.936,19.584,28.08,19.584,28.08,19.728,28.368,19.728,28.368,19.872,28.512,19.872,28.512,20.016,28.656,20.016,28.656,20.304,28.8,20.304,28.8,20.448,30.24,20.448,30.24,20.304,30.384,20.304,30.384,20.16,30.528,20.16,30.528,20.016,30.672,20.016,30.672,19.872,30.816,19.872,30.816,19.728,30.96,19.728,30.96,19.584,31.104,19.584,31.104,19.44,31.392,19.44,31.392,19.296,31.68,19.296,31.68,19.152,32.112,19.152,32.112,19.008,32.688,19.008,32.688,18.864" fill="black" />
    <polygon stroke="none" stroke-width="0" points="13.104,24.048,13.104,32.976,21.456,32.976,21.456,32.832,21.024,32.832,21.024,32.688,20.736,32.688,20.736,32.544,20.448,32.544,20.448,32.4,20.304,32.4,20.304,32.256,20.16,32.256,20.16,32.112,20.016,32.112,20.016,31.968,19.872,31.968,19.872,31.824,19.728,31.824,19.728,31.68,19.584,31.68,19.584,31.536,19.44,31.536,19.44,31.248,19.296,31.248,19.296,30.96,19.152,30.96,19.152,30.528,19.008,30.528,19.008,28.656,19.152,28.656,19.152,28.224,19.296,28.224,19.296,27.936,19.44,27.936,19.44,27.792,19.584,27.792,19.584,27.504,19.728,27.504,19.728,27.36,19.872,27.36,19.872,27.216,20.016,27.216,20.016,27.072,20.16,27.072,20.16,25.92,18,25.92,18,25.776,17.568,25.776,17.568,25.632,17.136,25.632,17.136,25.488,16.992,25.488,16.992,25.344,16.704,25.344,16.704,25.2,16.56,25.2,16.56,25.056,16.416,25.056,16.416,24.912,16.272,24.912,16.272,24.768,16.128,24.768,16.128,24.624,15.984,24.624,15.984,24.48,15.84,24.48,15.84,24.192,15.696,24.192,15.696,24.048" fill="black" />
    <polygon stroke="none" stroke-width="0" points="25.2,31.392,25.2,31.536,25.056,31.536,25.056,31.824,24.912,31.824,24.912,31.968,24.768,31.968,24.768,32.112,24.624,32.112,24.624,32.256,24.48,32.256,24.48,32.4,24.192,32.4,24.192,32.544,23.904,32.544,23.904,32.688,23.76,32.688,23.76,32.832,23.184,32.832,23.184,32.976,28.656,32.976,28.656,32.832,28.224,32.832,28.224,32.688,27.936,32.688,27.936,32.544,27.648,32.544,27.648,32.4,27.504,32.4,27.504,32.256,27.36,32.256,27.36,32.112,27.216,32.112,27.216,31.968,27.072,31.968,27.072,31.824,26.928,31.824,26.928,31.68,26.784,31.68,26.784,31.536,26.64,31.536,26.64,31.392" fill="black" />
    <polygon stroke="none" stroke-width="0" points="13.104,32.976,13.104,33.12,50.832,33.12,50.832,32.976" fill="black" />
    <polygon stroke="none" stroke-width="0" points="13.104,32.976,13.104,33.12,50.832,33.12,50.832,32.976" fill="black" />
    <polygon stroke="none" stroke-width="0" points="13.104,32.976,13.104,33.12,50.832,33.12,50.832,32.976" fill="black" />
    <polygon stroke="none" stroke-width="0" points="13.104,33.12,13.104,55.008,30.24,55.008,30.24,55.152,30.816,55.152,30.816,55.296,31.104,55.296,31.104,55.44,31.392,55.44,31.392,55.584,31.536,55.584,31.536,55.728,31.68,55.728,31.68,55.872,31.968,55.872,31.968,56.016,32.112,56.016,32.112,56.304,32.256,56.304,32.256,56.448,32.4,56.448,32.4,56.592,32.544,56.592,32.544,56.88,32.688,56.88,32.688,57.312,32.832,57.312,32.832,57.744,32.976,57.744,32.976,59.04,32.832,59.04,32.832,59.616,32.688,59.616,32.688,59.904,32.544,59.904,32.544,60.192,32.4,60.192,32.4,60.336,32.256,60.336,32.256,60.624,32.112,60.624,32.112,60.768,31.968,60.768,31.968,60.912,31.824,60.912,31.824,61.056,31.68,61.056,31.68,61.2,31.392,61.2,31.392,61.344,31.104,61.344,31.104,62.784,32.544,62.784,32.544,68.688,30.816,68.688,30.816,70.128,30.96,70.128,30.96,70.272,31.248,70.272,31.248,70.416,31.392,70.416,31.392,70.56,31.68,70.56,31.68,70.704,31.824,70.704,31.824,70.992,31.968,70.992,31.968,71.136,32.112,71.136,32.112,71.424,32.256,71.424,32.256,71.568,32.4,71.568,32.4,72.144,32.544,72.144,32.544,73.584,32.4,73.584,32.4,74.016,32.256,74.016,32.256,74.304,32.112,74.304,32.112,74.448,31.968,74.448,31.968,74.736,31.824,74.736,31.824,74.88,31.68,74.88,31.68,75.024,31.536,75.024,31.536,75.168,31.248,75.168,31.248,75.312,31.104,75.312,31.104,75.456,30.816,75.456,30.816,75.6,30.384,75.6,30.384,75.744,50.832,75.744,50.832,33.12" fill="black" />
    <polygon stroke="none" stroke-width="0" points="13.104,55.008,13.104,56.88,19.296,56.88,19.296,56.736,19.44,56.736,19.44,56.592,19.584,56.592,19.584,56.304,19.728,56.304,19.728,56.16,19.872,56.16,19.872,56.016,20.016,56.016,20.016,55.872,20.16,55.872,20.16,55.728,20.304,55.728,20.304,55.584,20.592,55.584,20.592,55.44,20.88,55.44,20.88,55.296,21.168,55.296,21.168,55.152,21.6,55.152,21.6,55.008" fill="black" />
    <polygon stroke="none" stroke-width="0" points="23.04,55.008,23.04,55.152,23.616,55.152,23.616,55.296,23.904,55.296,23.904,55.44,24.192,55.44,24.192,55.584,24.336,55.584,24.336,55.728,24.48,55.728,24.48,55.872,24.768,55.872,24.768,56.016,24.912,56.016,24.912,56.304,25.056,56.304,25.056,56.448,25.2,56.448,25.2,56.592,26.784,56.592,26.784,56.304,26.928,56.304,26.928,56.16,27.072,56.16,27.072,56.016,27.216,56.016,27.216,55.872,27.36,55.872,27.36,55.728,27.504,55.728,27.504,55.584,27.792,55.584,27.792,55.44,28.08,55.44,28.08,55.296,28.368,55.296,28.368,55.152,28.8,55.152,28.8,55.008" fill="black" />
    <polygon stroke="none" stroke-width="0" points="25.2,60.192,25.2,60.336,25.056,60.336,25.056,60.624,24.912,60.624,24.912,60.768,24.768,60.768,24.768,60.912,24.624,60.912,24.624,61.056,24.48,61.056,24.48,61.2,24.192,61.2,24.192,61.344,23.904,61.344,23.904,61.488,23.76,61.488,23.76,61.632,23.184,61.632,23.184,61.776,23.04,61.776,23.04,63.216,23.472,63.216,23.472,63.36,23.76,63.36,23.76,63.504,23.904,63.504,23.904,63.648,24.192,63.648,24.192,63.792,24.336,63.792,24.336,64.08,24.48,64.08,24.48,64.224,24.624,64.224,24.624,64.512,24.768,64.512,24.768,64.8,24.912,64.8,24.912,66.384,24.768,66.384,24.768,66.672,24.624,66.672,24.624,66.96,24.48,66.96,24.48,67.104,24.336,67.104,24.336,67.392,24.192,67.392,24.192,67.536,23.904,67.536,23.904,67.68,23.76,67.68,23.76,67.824,23.472,67.824,23.472,67.968,23.184,67.968,23.184,68.112,26.64,68.112,26.64,62.784,27.936,62.784,27.936,61.344,27.648,61.344,27.648,61.2,27.504,61.2,27.504,61.056,27.36,61.056,27.36,60.912,27.216,60.912,27.216,60.768,27.072,60.768,27.072,60.624,26.928,60.624,26.928,60.48,26.784,60.48,26.784,60.336,26.64,60.336,26.64,60.192" fill="black" />
    <polygon stroke="none" stroke-width="0" points="0,68.112,0,68.256,26.64,68.256,26.64,68.112" fill="black" />
    <polygon stroke="none" stroke-width="0" points="0,68.112,0,68.256,26.64,68.256,26.64,68.112" fill="black" />
    <polygon stroke="none" stroke-width="0" points="0,68.256,0,70.272,23.04,70.272,23.04,70.416,23.472,70.416,23.472,70.56,23.76,70.56,23.76,70.704,23.904,70.704,23.904,70.848,24.192,70.848,24.192,70.992,24.336,70.992,24.336,71.28,24.48,71.28,24.48,71.424,24.624,71.424,24.624,71.712,24.768,71.712,24.768,72,24.912,72,24.912,73.584,24.768,73.584,24.768,73.872,24.624,73.872,24.624,74.16,24.48,74.16,24.48,74.304,24.336,74.304,24.336,74.592,24.192,74.592,24.192,74.736,23.904,74.736,23.904,74.88,23.76,74.88,23.76,75.024,23.472,75.024,23.472,75.168,23.184,75.168,23.184,75.312,27.936,75.312,27.936,75.168,27.648,75.168,27.648,75.024,27.504,75.024,27.504,74.88,27.36,74.88,27.36,74.736,27.216,74.736,27.216,74.448,27.072,74.448,27.072,74.304,26.928,74.304,26.928,74.016,26.784,74.016,26.784,73.584,26.64,73.584,26.64,72,26.784,72,26.784,71.568,26.928,71.568,26.928,71.28,27.072,71.28,27.072,71.136,27.216,71.136,27.216,70.848,27.36,70.848,27.36,70.704,27.504,70.704,27.504,70.56,27.792,70.56,27.792,70.416,27.936,70.416,27.936,70.272,28.08,70.272,28.08,70.128,28.368,70.128,28.368,68.688,26.64,68.688,26.64,68.256" fill="black" />
    <polygon stroke="none" stroke-width="0" points="0,70.272,0,75.312,21.6,75.312,21.6,75.168,21.312,75.168,21.312,75.024,21.024,75.024,21.024,74.88,20.736,74.88,20.736,74.736,20.592,74.736,20.592,74.592,20.448,74.592,20.448,74.448,20.304,74.448,20.304,74.16,20.16,74.16,20.16,73.872,20.016,73.872,20.016,73.584,19.872,73.584,19.872,72,20.016,72,20.016,71.712,20.16,71.712,20.16,71.424,20.304,71.424,20.304,71.28,20.448,71.28,20.448,70.992,20.592,70.992,20.592,70.848,20.88,70.848,20.88,70.704,21.024,70.704,21.024,70.56,21.312,70.56,21.312,70.416,21.6,70.416,21.6,70.272" fill="black" />
    <polygon stroke="none" stroke-width="0" points="0,75.312,0,75.456,28.08,75.456,28.08,75.312" fill="black" />
    <polygon stroke="none" stroke-width="0" points="0,75.312,0,75.456,28.08,75.456,28.08,75.312" fill="black" />
    <polygon stroke="none" stroke-width="0" points="0,75.456,0,75.744,28.8,75.744,28.8,75.6,28.368,75.6,28.368,75.456" fill="black" />
    <polygon stroke="none" stroke-width="0" points="0,75.744,0,75.888,50.832,75.888,50.832,75.744" fill="black" />
    <polygon stroke="none" stroke-width="0" points="0,75.744,0,75.888,50.832,75.888,50.832,75.744" fill="black" />
    <polygon stroke="none" stroke-width="0" points="0,75.888,0,79.2,50.832,79.2,50.832,75.888" fill="black" />
    <g  id="connector0pad">
     <circle stroke="none" stroke-width="0" cy="5.05414" r="2.7" fill="black"  cx="45.2051"/>
    </g>
   </g>
  </g>
 </g>
 <g partID="855533780">
  <g transform="translate(15.984,62.928)">
   <g  id="groundplane">
    <g  id="connector0pad">
     <polygon stroke="none" stroke-width="0" points="0,0,0,4.032,7.344,4.032,7.344,3.744,7.488,3.744,7.488,3.6,7.776,3.6,7.776,3.456,7.92,3.456,7.92,3.312,8.208,3.312,8.208,3.168,8.496,3.168,8.496,1.728,8.352,1.728,8.352,1.584,7.92,1.584,7.92,1.44,7.632,1.44,7.632,1.296,7.344,1.296,7.344,1.152,7.2,1.152,7.2,1.008,7.056,1.008,7.056,0.864,6.912,0.864,6.912,0.72,6.768,0.72,6.768,0.576,6.624,0.576,6.624,0.432,6.48,0.432,6.48,0.288,6.336,0.288,6.336,0" fill="black" />
    </g>
   </g>
  </g>
 </g>
 <g partID="855533790">
  <g transform="translate(34.2,21.456)">
   <g  id="groundplane">
    <polygon stroke="none" stroke-width="0" points="0,0,3.24,0,3.24,2.304,0,2.304" fill="black" />
   </g>
  </g>
 </g>
 <g partID="855533800">
  <g transform="translate(31.032,76.608)">
   <g  id="groundplane">
    <polygon stroke="none" stroke-width="0" points="0,0,2.664,0,2.664,2.016,0,2.016" fill="black" />
   </g>
  </g>
 </g>
 <g partID="855533810">
  <g transform="translate(24.048,76.608)">
   <g  id="groundplane">
    <polygon stroke="none" stroke-width="0" points="0,0,2.232,0,2.232,1.584,0,1.584" fill="black" />
   </g>
  </g>
 </g>
 <g partID="855533820">
  <g transform="translate(22.464,74.448)">
   <g  id="groundplane">
    <polygon stroke="none" stroke-width="0" points="0,0,1.584,0,1.584,2.232,0,2.232" fill="black" />
   </g>
  </g>
 </g>
 <g partID="855517290">
  <g transform="translate(27.608,65.78)">
   <g transform="matrix(0,1,-1,0,0,0)">
    <g  id="copper0">
     <circle stroke="black" stroke-width="0.72" cy="2.34" connectorname="E" r="1.49386" fill="none"  id="connector1pad" cx="2.7"/>
     <circle stroke="black" stroke-width="0.72" cy="2.34" connectorname="C" r="1.49386" fill="none"  id="connector0pad" cx="9.9"/>
    </g>
   </g>
  </g>
 </g>
 <g partID="855519990">
  <g transform="translate(41.2552,79.2264)">
   <g transform="matrix(-1,0,0,-1,0,0)">
    <g  id="copper0">
     <g  id="copper1">
      <circle stroke="black" stroke-width="1.13384" cy="10.6336" fill="none" r="1.7008"  id="connector1pad" cx="8.7872"/>
      <rect stroke="black" stroke-width="1.13384" x="7.0864" fill="none"  y="8.9328" width="3.4016" height="3.4016"/>
      <circle stroke="black" stroke-width="1.13384" cy="3.5464" fill="none" r="1.7008"  id="connector0pad" cx="8.7872"/>
     </g>
    </g>
   </g>
  </g>
 </g>
 <g partID="855520170">
  <g transform="translate(41.0777,20.2558)">
   <g transform="matrix(0,1,-1,0,0,0)">
    <g  id="copper0">
     <circle stroke="black" stroke-width="1.44" cy="5.04" fill="none" r="2.088"  id="connector0pin" cx="5.04"/>
     <circle stroke="black" stroke-width="1.44" cy="12.24" fill="none" r="2.088"  id="connector1pin" cx="5.04"/>
     <circle stroke="black" stroke-width="1.44" cy="19.44" fill="none" r="2.088"  id="connector2pin" cx="5.04"/>
    </g>
   </g>
  </g>
 </g>
 <g partID="855520330">
  <g transform="translate(28.3337,29.7958)">
   <g transform="matrix(0,1,-1,0,0,0)">
    <g  id="copper0">
     <g  id="copper1">
      <!-- <rect width="55" x="10" y="15.5" fill="none" height="55" stroke="rgb(255, 191, 0)" stroke-width="20" />  -->
      <circle stroke="black" stroke-width="1.44" cy="3.096" fill="none" r="1.98"  id="connector0pin" cx="2.7"/>
      <circle stroke="black" stroke-width="1.44" cy="3.096" fill="none" r="1.98"  id="connector1pin" cx="31.5"/>
     </g>
    </g>
   </g>
  </g>
 </g>
 <g partID="855520300">
  <g transform="translate(35.5337,29.7958)">
   <g transform="matrix(0,1,-1,0,0,0)">
    <g  id="copper0">
     <g  id="copper1">
      <!-- <rect width="55" x="10" y="15.5" fill="none" height="55" stroke="rgb(255, 191, 0)" stroke-width="20" />  -->
      <circle stroke="black" stroke-width="1.44" cy="3.096" fill="none" r="1.98"  id="connector0pin" cx="2.7"/>
      <circle stroke="black" stroke-width="1.44" cy="3.096" fill="none" r="1.98"  id="connector1pin" cx="31.5"/>
     </g>
    </g>
   </g>
  </g>
 </g>
 <g partID="855521710">
  <g transform="translate(9.93256,9.86456)">
   <g  id="copper0">
    <circle stroke-width="0" stroke="black" cy="6.13543" fill="black" r="4.53543"  id="nonconn0" cx="6.13543"/>
   </g>
  </g>
 </g>
 <g partID="855521740">
  <g transform="translate(38.3326,9.86456)">
   <g  id="copper0">
    <circle stroke-width="0" stroke="black" cy="6.13543" fill="black" r="4.53543"  id="nonconn0" cx="6.13543"/>
   </g>
  </g>
 </g>
 <g partID="855520420">
  <line stroke="black" y2="27.2349" stroke-width="1.728" stroke-linecap="round" x1="31.5164" x2="29.8072" y1="30.6532"/>
 </g>
 <g partID="855521180">
  <path stroke-width="1.728" stroke="black" stroke-linecap="round" fill="none" d="M43.268,75.68C43.268,75.68, 43.268,75.68 43.268,25.28"/>
 </g>
 <g partID="855521070">
  <path stroke-width="1.728" stroke="black" stroke-linecap="round" fill="none" d="M43.268,25.28C43.268,25.28, 43.268,25.28 36.0377,25.2957"/>
 </g>
 <g partID="855520190">
  <path stroke-width="1.728" stroke="black" stroke-linecap="round" fill="none" d="M32.468,75.68C32.468,75.68, 32.468,75.68 43.268,75.68"/>
 </g>
 <g partID="855520350">
  <line stroke="black" y2="32.4958" stroke-width="1.728" stroke-linecap="round" x1="27.2977" x2="30.3777" y1="32.4958"/>
 </g>
 <g partID="855520070">
  <line stroke="black" y2="75.68" stroke-width="1.728" stroke-linecap="round" x1="27.2019" x2="30.5341" y1="75.68"/>
 </g>
 <g partID="855520530">
  <line stroke="black" y2="63.3557" stroke-width="1.728" stroke-linecap="round" x1="32.46" x2="32.4462" y1="66.6589"/>
 </g>
 <g partID="855520740">
  <path stroke-width="1.728" stroke="black" stroke-linecap="round" fill="none" d="M25.2377,61.2958C25.2377,61.2958, 25.2377,61.2958 14.468,61.28"/>
 </g>
 <g partID="855534030">
  <line stroke="black" y2="25.291" stroke-width="1.728" stroke-linecap="round" x1="14.468" x2="19.4697" y1="25.28"/>
 </g>
 <g partID="855520960">
  <path stroke-width="1.728" stroke="black" stroke-linecap="round" fill="none" d="M14.468,61.28C14.468,61.28, 14.468,61.28 14.468,25.28"/>
 </g>
 <g partID="855521600">
  <path stroke-width="1.728" stroke="black" stroke-linecap="round" fill="none" d="M14.468,68.48C14.468,68.48, 14.468,68.48 14.468,61.28"/>
 </g>
 <g partID="855520600">
  <path stroke-width="1.728" stroke="black" stroke-linecap="round" fill="none" d="M25.268,68.48C25.268,68.48, 25.268,68.48 14.468,68.48"/>
 </g>
</svg>
